<svg width="132" height="32" viewBox="0 0 132 32" fill="none" xmlns="http://www.w3.org/2000/svg">
<path fill-rule="evenodd" clip-rule="evenodd" d="M61.2342 19.5474C60.4552 19.7271 60.0523 19.4874 60.0523 18.9714C60.0523 18.2645 60.7832 17.9815 61.8276 17.9815C62.2869 17.9815 62.7202 18.0211 62.7202 18.0211C62.7202 18.3238 62.0626 19.3564 61.2342 19.5474ZM62.0269 12.4692C59.5333 12.4692 57.7429 13.3861 57.7429 13.3861V16.0818C57.7429 16.0818 59.7196 14.9455 61.3232 14.9455C62.6026 14.9455 62.7599 15.6358 62.7019 16.2085C62.7019 16.2085 62.3326 16.1108 61.2066 16.1108C58.5523 16.1108 57.2129 17.3171 57.2129 19.2511C57.2129 21.0858 58.7183 21.8524 59.9869 21.8524C61.8376 21.8524 62.6516 20.6084 62.9012 20.0184C63.0749 19.6091 63.1069 19.3331 63.2622 19.3331C63.4406 19.3331 63.3806 19.5311 63.3716 19.9384C63.3569 20.6521 63.3909 21.1914 63.5039 21.6461H65.9582V17.2315C65.9582 14.4751 64.9829 12.4692 62.0269 12.4692Z" fill="#FF0000" style="mix-blend-mode:saturation"/>
<path fill-rule="evenodd" clip-rule="evenodd" d="M61.2342 19.5474C60.4552 19.7271 60.0523 19.4874 60.0523 18.9714C60.0523 18.2645 60.7832 17.9815 61.8276 17.9815C62.2869 17.9815 62.7202 18.0211 62.7202 18.0211C62.7202 18.3238 62.0626 19.3564 61.2342 19.5474ZM62.0269 12.4692C59.5333 12.4692 57.7429 13.3861 57.7429 13.3861V16.0818C57.7429 16.0818 59.7196 14.9455 61.3232 14.9455C62.6026 14.9455 62.7599 15.6358 62.7019 16.2085C62.7019 16.2085 62.3326 16.1108 61.2066 16.1108C58.5523 16.1108 57.2129 17.3171 57.2129 19.2511C57.2129 21.0858 58.7183 21.8524 59.9869 21.8524C61.8376 21.8524 62.6516 20.6084 62.9012 20.0184C63.0749 19.6091 63.1069 19.3331 63.2622 19.3331C63.4406 19.3331 63.3806 19.5311 63.3716 19.9384C63.3569 20.6521 63.3909 21.1914 63.5039 21.6461H65.9582V17.2315C65.9582 14.4751 64.9829 12.4692 62.0269 12.4692Z" fill="white" style="mix-blend-mode:difference"/>
<path fill-rule="evenodd" clip-rule="evenodd" d="M61.2342 19.5474C60.4552 19.7271 60.0523 19.4874 60.0523 18.9714C60.0523 18.2645 60.7832 17.9815 61.8276 17.9815C62.2869 17.9815 62.7202 18.0211 62.7202 18.0211C62.7202 18.3238 62.0626 19.3564 61.2342 19.5474ZM62.0269 12.4692C59.5333 12.4692 57.7429 13.3861 57.7429 13.3861V16.0818C57.7429 16.0818 59.7196 14.9455 61.3232 14.9455C62.6026 14.9455 62.7599 15.6358 62.7019 16.2085C62.7019 16.2085 62.3326 16.1108 61.2066 16.1108C58.5523 16.1108 57.2129 17.3171 57.2129 19.2511C57.2129 21.0858 58.7183 21.8524 59.9869 21.8524C61.8376 21.8524 62.6516 20.6084 62.9012 20.0184C63.0749 19.6091 63.1069 19.3331 63.2622 19.3331C63.4406 19.3331 63.3806 19.5311 63.3716 19.9384C63.3569 20.6521 63.3909 21.1914 63.5039 21.6461H65.9582V17.2315C65.9582 14.4751 64.9829 12.4692 62.0269 12.4692Z" fill="white" style="mix-blend-mode:saturation"/>
<path fill-rule="evenodd" clip-rule="evenodd" d="M61.2342 19.5474C60.4552 19.7271 60.0523 19.4874 60.0523 18.9714C60.0523 18.2645 60.7832 17.9815 61.8276 17.9815C62.2869 17.9815 62.7202 18.0211 62.7202 18.0211C62.7202 18.3238 62.0626 19.3564 61.2342 19.5474ZM62.0269 12.4692C59.5333 12.4692 57.7429 13.3861 57.7429 13.3861V16.0818C57.7429 16.0818 59.7196 14.9455 61.3232 14.9455C62.6026 14.9455 62.7599 15.6358 62.7019 16.2085C62.7019 16.2085 62.3326 16.1108 61.2066 16.1108C58.5523 16.1108 57.2129 17.3171 57.2129 19.2511C57.2129 21.0858 58.7183 21.8524 59.9869 21.8524C61.8376 21.8524 62.6516 20.6084 62.9012 20.0184C63.0749 19.6091 63.1069 19.3331 63.2622 19.3331C63.4406 19.3331 63.3806 19.5311 63.3716 19.9384C63.3569 20.6521 63.3909 21.1914 63.5039 21.6461H65.9582V17.2315C65.9582 14.4751 64.9829 12.4692 62.0269 12.4692Z" fill="black" style="mix-blend-mode:overlay"/>
<path fill-rule="evenodd" clip-rule="evenodd" d="M61.2342 19.5474C60.4552 19.7271 60.0523 19.4874 60.0523 18.9714C60.0523 18.2645 60.7832 17.9815 61.8276 17.9815C62.2869 17.9815 62.7202 18.0211 62.7202 18.0211C62.7202 18.3238 62.0626 19.3564 61.2342 19.5474ZM62.0269 12.4692C59.5333 12.4692 57.7429 13.3861 57.7429 13.3861V16.0818C57.7429 16.0818 59.7196 14.9455 61.3232 14.9455C62.6026 14.9455 62.7599 15.6358 62.7019 16.2085C62.7019 16.2085 62.3326 16.1108 61.2066 16.1108C58.5523 16.1108 57.2129 17.3171 57.2129 19.2511C57.2129 21.0858 58.7183 21.8524 59.9869 21.8524C61.8376 21.8524 62.6516 20.6084 62.9012 20.0184C63.0749 19.6091 63.1069 19.3331 63.2622 19.3331C63.4406 19.3331 63.3806 19.5311 63.3716 19.9384C63.3569 20.6521 63.3909 21.1914 63.5039 21.6461H65.9582V17.2315C65.9582 14.4751 64.9829 12.4692 62.0269 12.4692Z" fill="black" style="mix-blend-mode:overlay"/>
<path fill-rule="evenodd" clip-rule="evenodd" d="M61.2342 19.5474C60.4552 19.7271 60.0523 19.4874 60.0523 18.9714C60.0523 18.2645 60.7832 17.9815 61.8276 17.9815C62.2869 17.9815 62.7202 18.0211 62.7202 18.0211C62.7202 18.3238 62.0626 19.3564 61.2342 19.5474ZM62.0269 12.4692C59.5333 12.4692 57.7429 13.3861 57.7429 13.3861V16.0818C57.7429 16.0818 59.7196 14.9455 61.3232 14.9455C62.6026 14.9455 62.7599 15.6358 62.7019 16.2085C62.7019 16.2085 62.3326 16.1108 61.2066 16.1108C58.5523 16.1108 57.2129 17.3171 57.2129 19.2511C57.2129 21.0858 58.7183 21.8524 59.9869 21.8524C61.8376 21.8524 62.6516 20.6084 62.9012 20.0184C63.0749 19.6091 63.1069 19.3331 63.2622 19.3331C63.4406 19.3331 63.3806 19.5311 63.3716 19.9384C63.3569 20.6521 63.3909 21.1914 63.5039 21.6461H65.9582V17.2315C65.9582 14.4751 64.9829 12.4692 62.0269 12.4692Z" fill="black" style="mix-blend-mode:overlay"/>
<path fill-rule="evenodd" clip-rule="evenodd" d="M61.2342 19.5474C60.4552 19.7271 60.0523 19.4874 60.0523 18.9714C60.0523 18.2645 60.7832 17.9815 61.8276 17.9815C62.2869 17.9815 62.7202 18.0211 62.7202 18.0211C62.7202 18.3238 62.0626 19.3564 61.2342 19.5474ZM62.0269 12.4692C59.5333 12.4692 57.7429 13.3861 57.7429 13.3861V16.0818C57.7429 16.0818 59.7196 14.9455 61.3232 14.9455C62.6026 14.9455 62.7599 15.6358 62.7019 16.2085C62.7019 16.2085 62.3326 16.1108 61.2066 16.1108C58.5523 16.1108 57.2129 17.3171 57.2129 19.2511C57.2129 21.0858 58.7183 21.8524 59.9869 21.8524C61.8376 21.8524 62.6516 20.6084 62.9012 20.0184C63.0749 19.6091 63.1069 19.3331 63.2622 19.3331C63.4406 19.3331 63.3806 19.5311 63.3716 19.9384C63.3569 20.6521 63.3909 21.1914 63.5039 21.6461H65.9582V17.2315C65.9582 14.4751 64.9829 12.4692 62.0269 12.4692Z" fill="black" style="mix-blend-mode:overlay"/>
<path fill-rule="evenodd" clip-rule="evenodd" d="M78.1804 17.1653C78.1804 16.3589 78.9301 15.6246 80.3061 15.6246C81.8051 15.6246 83.0114 16.3466 83.2817 16.5106V13.39C83.2817 13.39 82.3291 12.4726 79.9874 12.4726C77.5191 12.4726 75.4635 13.9169 75.4635 17.0259C75.4635 20.1346 77.3291 21.8586 79.9808 21.8586C82.0524 21.8586 83.2871 20.7202 83.2871 20.7202V17.7566C82.8964 17.9749 81.8081 18.7306 80.3211 18.7306C78.7468 18.7306 78.1804 18.0059 78.1804 17.1653ZM45.3773 12.677C45.3776 12.679 45.5339 13.3496 45.3279 14.2266C45.2229 14.6726 45.03 15.0519 45.263 15.0519C45.4236 15.0519 45.424 14.9186 45.6329 14.4406C45.9386 13.742 46.5829 12.4703 48.0886 12.4703C49.5199 12.4703 50.1943 13.34 50.4176 14.1543C50.5876 14.7729 50.4389 15.0519 50.6463 15.0519C50.7936 15.0519 50.8446 14.7309 51.0259 14.3249C51.3516 13.5976 52.0599 12.4703 53.4926 12.4703C55.6542 12.4703 56.4796 14.0313 56.4796 16.3729V21.6492H53.2682V16.7849C53.2682 15.9739 53.1372 15.1873 52.3979 15.1873C51.7129 15.1873 51.3936 16.4013 51.3936 17.1849V21.6512H48.1233V16.7853C48.1233 15.7476 47.9769 15.1876 47.2476 15.1876C46.6163 15.1876 46.2479 16.3046 46.2479 17.1853V21.6496H42.9906V12.677H45.3773ZM67.0272 12.6893C67.0285 12.69 67.5828 13.0096 68.6588 13.0096C69.7368 13.0096 70.2842 12.6893 70.2842 12.6893V21.6516H67.0272V12.6893ZM93.9167 12.6893C93.918 12.69 94.4724 13.0096 95.5487 13.0096C96.6263 13.0096 97.174 12.6893 97.174 12.6893V21.6516H93.9167V12.6893ZM74.5955 9.96064V21.6516H71.3381V9.96064H74.5955ZM87.1527 9.96064C87.1531 9.96164 87.2877 10.2976 87.2877 11.297C87.2877 12.7726 86.9667 13.9736 86.8151 14.4313C86.7347 14.6736 86.5914 15.0476 86.7971 15.0543C86.9157 15.0579 86.9871 14.8793 87.1324 14.5693C87.2771 14.2589 87.9944 12.4723 89.8797 12.4723C92.4767 12.4723 92.8587 14.5989 92.8587 16.9019V21.6512H89.6014V16.7069C89.6014 15.6929 89.3887 15.1893 88.7091 15.1893C87.8884 15.1893 87.5984 16.4599 87.5984 17.1873V21.6512H84.3411V9.96031L87.1527 9.96064ZM100.661 12.677C100.661 12.679 100.818 13.3496 100.612 14.2266C100.507 14.6726 100.314 15.0519 100.547 15.0519C100.707 15.0519 100.708 14.9186 100.917 14.4406C101.222 13.742 101.867 12.4703 103.372 12.4703C104.869 12.4703 105.463 13.344 105.701 14.1543C105.861 14.6973 105.723 15.0519 105.93 15.0519C106.077 15.0519 106.128 14.7309 106.31 14.3249C106.635 13.5976 107.344 12.4703 108.776 12.4703C110.938 12.4703 111.763 14.0313 111.763 16.3729V21.6492H108.552V16.7849C108.552 15.9739 108.421 15.1873 107.682 15.1873C106.997 15.1873 106.677 16.4013 106.677 17.1849V21.6512H103.407V16.7853C103.407 15.7476 103.261 15.1876 102.531 15.1876C101.9 15.1876 101.532 16.3046 101.532 17.1853V21.6496H98.2743V12.677H100.661ZM68.6458 9.86997C67.5452 9.86997 66.6522 10.4526 66.6522 11.1713C66.6522 11.89 67.5448 12.4726 68.6458 12.4726C69.7472 12.4726 70.6398 11.89 70.6398 11.1713C70.6398 10.4526 69.7475 9.86997 68.6458 9.86997ZM95.5357 9.86997C94.4347 9.86997 93.5417 10.4526 93.5417 11.1713C93.5417 11.89 94.4344 12.4726 95.5357 12.4726C96.6367 12.4726 97.5297 11.89 97.5297 11.1713C97.5297 10.4526 96.637 9.86997 95.5357 9.86997Z" fill="#FF0000" style="mix-blend-mode:saturation"/>
<path fill-rule="evenodd" clip-rule="evenodd" d="M78.1804 17.1653C78.1804 16.3589 78.9301 15.6246 80.3061 15.6246C81.8051 15.6246 83.0114 16.3466 83.2817 16.5106V13.39C83.2817 13.39 82.3291 12.4726 79.9874 12.4726C77.5191 12.4726 75.4635 13.9169 75.4635 17.0259C75.4635 20.1346 77.3291 21.8586 79.9808 21.8586C82.0524 21.8586 83.2871 20.7202 83.2871 20.7202V17.7566C82.8964 17.9749 81.8081 18.7306 80.3211 18.7306C78.7468 18.7306 78.1804 18.0059 78.1804 17.1653ZM45.3773 12.677C45.3776 12.679 45.5339 13.3496 45.3279 14.2266C45.2229 14.6726 45.03 15.0519 45.263 15.0519C45.4236 15.0519 45.424 14.9186 45.6329 14.4406C45.9386 13.742 46.5829 12.4703 48.0886 12.4703C49.5199 12.4703 50.1943 13.34 50.4176 14.1543C50.5876 14.7729 50.4389 15.0519 50.6463 15.0519C50.7936 15.0519 50.8446 14.7309 51.0259 14.3249C51.3516 13.5976 52.0599 12.4703 53.4926 12.4703C55.6542 12.4703 56.4796 14.0313 56.4796 16.3729V21.6492H53.2682V16.7849C53.2682 15.9739 53.1372 15.1873 52.3979 15.1873C51.7129 15.1873 51.3936 16.4013 51.3936 17.1849V21.6512H48.1233V16.7853C48.1233 15.7476 47.9769 15.1876 47.2476 15.1876C46.6163 15.1876 46.2479 16.3046 46.2479 17.1853V21.6496H42.9906V12.677H45.3773ZM67.0272 12.6893C67.0285 12.69 67.5828 13.0096 68.6588 13.0096C69.7368 13.0096 70.2842 12.6893 70.2842 12.6893V21.6516H67.0272V12.6893ZM93.9167 12.6893C93.918 12.69 94.4724 13.0096 95.5487 13.0096C96.6263 13.0096 97.174 12.6893 97.174 12.6893V21.6516H93.9167V12.6893ZM74.5955 9.96064V21.6516H71.3381V9.96064H74.5955ZM87.1527 9.96064C87.1531 9.96164 87.2877 10.2976 87.2877 11.297C87.2877 12.7726 86.9667 13.9736 86.8151 14.4313C86.7347 14.6736 86.5914 15.0476 86.7971 15.0543C86.9157 15.0579 86.9871 14.8793 87.1324 14.5693C87.2771 14.2589 87.9944 12.4723 89.8797 12.4723C92.4767 12.4723 92.8587 14.5989 92.8587 16.9019V21.6512H89.6014V16.7069C89.6014 15.6929 89.3887 15.1893 88.7091 15.1893C87.8884 15.1893 87.5984 16.4599 87.5984 17.1873V21.6512H84.3411V9.96031L87.1527 9.96064ZM100.661 12.677C100.661 12.679 100.818 13.3496 100.612 14.2266C100.507 14.6726 100.314 15.0519 100.547 15.0519C100.707 15.0519 100.708 14.9186 100.917 14.4406C101.222 13.742 101.867 12.4703 103.372 12.4703C104.869 12.4703 105.463 13.344 105.701 14.1543C105.861 14.6973 105.723 15.0519 105.93 15.0519C106.077 15.0519 106.128 14.7309 106.31 14.3249C106.635 13.5976 107.344 12.4703 108.776 12.4703C110.938 12.4703 111.763 14.0313 111.763 16.3729V21.6492H108.552V16.7849C108.552 15.9739 108.421 15.1873 107.682 15.1873C106.997 15.1873 106.677 16.4013 106.677 17.1849V21.6512H103.407V16.7853C103.407 15.7476 103.261 15.1876 102.531 15.1876C101.9 15.1876 101.532 16.3046 101.532 17.1853V21.6496H98.2743V12.677H100.661ZM68.6458 9.86997C67.5452 9.86997 66.6522 10.4526 66.6522 11.1713C66.6522 11.89 67.5448 12.4726 68.6458 12.4726C69.7472 12.4726 70.6398 11.89 70.6398 11.1713C70.6398 10.4526 69.7475 9.86997 68.6458 9.86997ZM95.5357 9.86997C94.4347 9.86997 93.5417 10.4526 93.5417 11.1713C93.5417 11.89 94.4344 12.4726 95.5357 12.4726C96.6367 12.4726 97.5297 11.89 97.5297 11.1713C97.5297 10.4526 96.637 9.86997 95.5357 9.86997Z" fill="white" style="mix-blend-mode:difference"/>
<path fill-rule="evenodd" clip-rule="evenodd" d="M78.1804 17.1653C78.1804 16.3589 78.9301 15.6246 80.3061 15.6246C81.8051 15.6246 83.0114 16.3466 83.2817 16.5106V13.39C83.2817 13.39 82.3291 12.4726 79.9874 12.4726C77.5191 12.4726 75.4635 13.9169 75.4635 17.0259C75.4635 20.1346 77.3291 21.8586 79.9808 21.8586C82.0524 21.8586 83.2871 20.7202 83.2871 20.7202V17.7566C82.8964 17.9749 81.8081 18.7306 80.3211 18.7306C78.7468 18.7306 78.1804 18.0059 78.1804 17.1653ZM45.3773 12.677C45.3776 12.679 45.5339 13.3496 45.3279 14.2266C45.2229 14.6726 45.03 15.0519 45.263 15.0519C45.4236 15.0519 45.424 14.9186 45.6329 14.4406C45.9386 13.742 46.5829 12.4703 48.0886 12.4703C49.5199 12.4703 50.1943 13.34 50.4176 14.1543C50.5876 14.7729 50.4389 15.0519 50.6463 15.0519C50.7936 15.0519 50.8446 14.7309 51.0259 14.3249C51.3516 13.5976 52.0599 12.4703 53.4926 12.4703C55.6542 12.4703 56.4796 14.0313 56.4796 16.3729V21.6492H53.2682V16.7849C53.2682 15.9739 53.1372 15.1873 52.3979 15.1873C51.7129 15.1873 51.3936 16.4013 51.3936 17.1849V21.6512H48.1233V16.7853C48.1233 15.7476 47.9769 15.1876 47.2476 15.1876C46.6163 15.1876 46.2479 16.3046 46.2479 17.1853V21.6496H42.9906V12.677H45.3773ZM67.0272 12.6893C67.0285 12.69 67.5828 13.0096 68.6588 13.0096C69.7368 13.0096 70.2842 12.6893 70.2842 12.6893V21.6516H67.0272V12.6893ZM93.9167 12.6893C93.918 12.69 94.4724 13.0096 95.5487 13.0096C96.6263 13.0096 97.174 12.6893 97.174 12.6893V21.6516H93.9167V12.6893ZM74.5955 9.96064V21.6516H71.3381V9.96064H74.5955ZM87.1527 9.96064C87.1531 9.96164 87.2877 10.2976 87.2877 11.297C87.2877 12.7726 86.9667 13.9736 86.8151 14.4313C86.7347 14.6736 86.5914 15.0476 86.7971 15.0543C86.9157 15.0579 86.9871 14.8793 87.1324 14.5693C87.2771 14.2589 87.9944 12.4723 89.8797 12.4723C92.4767 12.4723 92.8587 14.5989 92.8587 16.9019V21.6512H89.6014V16.7069C89.6014 15.6929 89.3887 15.1893 88.7091 15.1893C87.8884 15.1893 87.5984 16.4599 87.5984 17.1873V21.6512H84.3411V9.96031L87.1527 9.96064ZM100.661 12.677C100.661 12.679 100.818 13.3496 100.612 14.2266C100.507 14.6726 100.314 15.0519 100.547 15.0519C100.707 15.0519 100.708 14.9186 100.917 14.4406C101.222 13.742 101.867 12.4703 103.372 12.4703C104.869 12.4703 105.463 13.344 105.701 14.1543C105.861 14.6973 105.723 15.0519 105.93 15.0519C106.077 15.0519 106.128 14.7309 106.31 14.3249C106.635 13.5976 107.344 12.4703 108.776 12.4703C110.938 12.4703 111.763 14.0313 111.763 16.3729V21.6492H108.552V16.7849C108.552 15.9739 108.421 15.1873 107.682 15.1873C106.997 15.1873 106.677 16.4013 106.677 17.1849V21.6512H103.407V16.7853C103.407 15.7476 103.261 15.1876 102.531 15.1876C101.9 15.1876 101.532 16.3046 101.532 17.1853V21.6496H98.2743V12.677H100.661ZM68.6458 9.86997C67.5452 9.86997 66.6522 10.4526 66.6522 11.1713C66.6522 11.89 67.5448 12.4726 68.6458 12.4726C69.7472 12.4726 70.6398 11.89 70.6398 11.1713C70.6398 10.4526 69.7475 9.86997 68.6458 9.86997ZM95.5357 9.86997C94.4347 9.86997 93.5417 10.4526 93.5417 11.1713C93.5417 11.89 94.4344 12.4726 95.5357 12.4726C96.6367 12.4726 97.5297 11.89 97.5297 11.1713C97.5297 10.4526 96.637 9.86997 95.5357 9.86997Z" fill="white" style="mix-blend-mode:saturation"/>
<path fill-rule="evenodd" clip-rule="evenodd" d="M78.1804 17.1653C78.1804 16.3589 78.9301 15.6246 80.3061 15.6246C81.8051 15.6246 83.0114 16.3466 83.2817 16.5106V13.39C83.2817 13.39 82.3291 12.4726 79.9874 12.4726C77.5191 12.4726 75.4635 13.9169 75.4635 17.0259C75.4635 20.1346 77.3291 21.8586 79.9808 21.8586C82.0524 21.8586 83.2871 20.7202 83.2871 20.7202V17.7566C82.8964 17.9749 81.8081 18.7306 80.3211 18.7306C78.7468 18.7306 78.1804 18.0059 78.1804 17.1653ZM45.3773 12.677C45.3776 12.679 45.5339 13.3496 45.3279 14.2266C45.2229 14.6726 45.03 15.0519 45.263 15.0519C45.4236 15.0519 45.424 14.9186 45.6329 14.4406C45.9386 13.742 46.5829 12.4703 48.0886 12.4703C49.5199 12.4703 50.1943 13.34 50.4176 14.1543C50.5876 14.7729 50.4389 15.0519 50.6463 15.0519C50.7936 15.0519 50.8446 14.7309 51.0259 14.3249C51.3516 13.5976 52.0599 12.4703 53.4926 12.4703C55.6542 12.4703 56.4796 14.0313 56.4796 16.3729V21.6492H53.2682V16.7849C53.2682 15.9739 53.1372 15.1873 52.3979 15.1873C51.7129 15.1873 51.3936 16.4013 51.3936 17.1849V21.6512H48.1233V16.7853C48.1233 15.7476 47.9769 15.1876 47.2476 15.1876C46.6163 15.1876 46.2479 16.3046 46.2479 17.1853V21.6496H42.9906V12.677H45.3773ZM67.0272 12.6893C67.0285 12.69 67.5828 13.0096 68.6588 13.0096C69.7368 13.0096 70.2842 12.6893 70.2842 12.6893V21.6516H67.0272V12.6893ZM93.9167 12.6893C93.918 12.69 94.4724 13.0096 95.5487 13.0096C96.6263 13.0096 97.174 12.6893 97.174 12.6893V21.6516H93.9167V12.6893ZM74.5955 9.96064V21.6516H71.3381V9.96064H74.5955ZM87.1527 9.96064C87.1531 9.96164 87.2877 10.2976 87.2877 11.297C87.2877 12.7726 86.9667 13.9736 86.8151 14.4313C86.7347 14.6736 86.5914 15.0476 86.7971 15.0543C86.9157 15.0579 86.9871 14.8793 87.1324 14.5693C87.2771 14.2589 87.9944 12.4723 89.8797 12.4723C92.4767 12.4723 92.8587 14.5989 92.8587 16.9019V21.6512H89.6014V16.7069C89.6014 15.6929 89.3887 15.1893 88.7091 15.1893C87.8884 15.1893 87.5984 16.4599 87.5984 17.1873V21.6512H84.3411V9.96031L87.1527 9.96064ZM100.661 12.677C100.661 12.679 100.818 13.3496 100.612 14.2266C100.507 14.6726 100.314 15.0519 100.547 15.0519C100.707 15.0519 100.708 14.9186 100.917 14.4406C101.222 13.742 101.867 12.4703 103.372 12.4703C104.869 12.4703 105.463 13.344 105.701 14.1543C105.861 14.6973 105.723 15.0519 105.93 15.0519C106.077 15.0519 106.128 14.7309 106.31 14.3249C106.635 13.5976 107.344 12.4703 108.776 12.4703C110.938 12.4703 111.763 14.0313 111.763 16.3729V21.6492H108.552V16.7849C108.552 15.9739 108.421 15.1873 107.682 15.1873C106.997 15.1873 106.677 16.4013 106.677 17.1849V21.6512H103.407V16.7853C103.407 15.7476 103.261 15.1876 102.531 15.1876C101.9 15.1876 101.532 16.3046 101.532 17.1853V21.6496H98.2743V12.677H100.661ZM68.6458 9.86997C67.5452 9.86997 66.6522 10.4526 66.6522 11.1713C66.6522 11.89 67.5448 12.4726 68.6458 12.4726C69.7472 12.4726 70.6398 11.89 70.6398 11.1713C70.6398 10.4526 69.7475 9.86997 68.6458 9.86997ZM95.5357 9.86997C94.4347 9.86997 93.5417 10.4526 93.5417 11.1713C93.5417 11.89 94.4344 12.4726 95.5357 12.4726C96.6367 12.4726 97.5297 11.89 97.5297 11.1713C97.5297 10.4526 96.637 9.86997 95.5357 9.86997Z" fill="black" style="mix-blend-mode:overlay"/>
<path fill-rule="evenodd" clip-rule="evenodd" d="M78.1804 17.1653C78.1804 16.3589 78.9301 15.6246 80.3061 15.6246C81.8051 15.6246 83.0114 16.3466 83.2817 16.5106V13.39C83.2817 13.39 82.3291 12.4726 79.9874 12.4726C77.5191 12.4726 75.4635 13.9169 75.4635 17.0259C75.4635 20.1346 77.3291 21.8586 79.9808 21.8586C82.0524 21.8586 83.2871 20.7202 83.2871 20.7202V17.7566C82.8964 17.9749 81.8081 18.7306 80.3211 18.7306C78.7468 18.7306 78.1804 18.0059 78.1804 17.1653ZM45.3773 12.677C45.3776 12.679 45.5339 13.3496 45.3279 14.2266C45.2229 14.6726 45.03 15.0519 45.263 15.0519C45.4236 15.0519 45.424 14.9186 45.6329 14.4406C45.9386 13.742 46.5829 12.4703 48.0886 12.4703C49.5199 12.4703 50.1943 13.34 50.4176 14.1543C50.5876 14.7729 50.4389 15.0519 50.6463 15.0519C50.7936 15.0519 50.8446 14.7309 51.0259 14.3249C51.3516 13.5976 52.0599 12.4703 53.4926 12.4703C55.6542 12.4703 56.4796 14.0313 56.4796 16.3729V21.6492H53.2682V16.7849C53.2682 15.9739 53.1372 15.1873 52.3979 15.1873C51.7129 15.1873 51.3936 16.4013 51.3936 17.1849V21.6512H48.1233V16.7853C48.1233 15.7476 47.9769 15.1876 47.2476 15.1876C46.6163 15.1876 46.2479 16.3046 46.2479 17.1853V21.6496H42.9906V12.677H45.3773ZM67.0272 12.6893C67.0285 12.69 67.5828 13.0096 68.6588 13.0096C69.7368 13.0096 70.2842 12.6893 70.2842 12.6893V21.6516H67.0272V12.6893ZM93.9167 12.6893C93.918 12.69 94.4724 13.0096 95.5487 13.0096C96.6263 13.0096 97.174 12.6893 97.174 12.6893V21.6516H93.9167V12.6893ZM74.5955 9.96064V21.6516H71.3381V9.96064H74.5955ZM87.1527 9.96064C87.1531 9.96164 87.2877 10.2976 87.2877 11.297C87.2877 12.7726 86.9667 13.9736 86.8151 14.4313C86.7347 14.6736 86.5914 15.0476 86.7971 15.0543C86.9157 15.0579 86.9871 14.8793 87.1324 14.5693C87.2771 14.2589 87.9944 12.4723 89.8797 12.4723C92.4767 12.4723 92.8587 14.5989 92.8587 16.9019V21.6512H89.6014V16.7069C89.6014 15.6929 89.3887 15.1893 88.7091 15.1893C87.8884 15.1893 87.5984 16.4599 87.5984 17.1873V21.6512H84.3411V9.96031L87.1527 9.96064ZM100.661 12.677C100.661 12.679 100.818 13.3496 100.612 14.2266C100.507 14.6726 100.314 15.0519 100.547 15.0519C100.707 15.0519 100.708 14.9186 100.917 14.4406C101.222 13.742 101.867 12.4703 103.372 12.4703C104.869 12.4703 105.463 13.344 105.701 14.1543C105.861 14.6973 105.723 15.0519 105.93 15.0519C106.077 15.0519 106.128 14.7309 106.31 14.3249C106.635 13.5976 107.344 12.4703 108.776 12.4703C110.938 12.4703 111.763 14.0313 111.763 16.3729V21.6492H108.552V16.7849C108.552 15.9739 108.421 15.1873 107.682 15.1873C106.997 15.1873 106.677 16.4013 106.677 17.1849V21.6512H103.407V16.7853C103.407 15.7476 103.261 15.1876 102.531 15.1876C101.9 15.1876 101.532 16.3046 101.532 17.1853V21.6496H98.2743V12.677H100.661ZM68.6458 9.86997C67.5452 9.86997 66.6522 10.4526 66.6522 11.1713C66.6522 11.89 67.5448 12.4726 68.6458 12.4726C69.7472 12.4726 70.6398 11.89 70.6398 11.1713C70.6398 10.4526 69.7475 9.86997 68.6458 9.86997ZM95.5357 9.86997C94.4347 9.86997 93.5417 10.4526 93.5417 11.1713C93.5417 11.89 94.4344 12.4726 95.5357 12.4726C96.6367 12.4726 97.5297 11.89 97.5297 11.1713C97.5297 10.4526 96.637 9.86997 95.5357 9.86997Z" fill="black" style="mix-blend-mode:overlay"/>
<path fill-rule="evenodd" clip-rule="evenodd" d="M78.1804 17.1653C78.1804 16.3589 78.9301 15.6246 80.3061 15.6246C81.8051 15.6246 83.0114 16.3466 83.2817 16.5106V13.39C83.2817 13.39 82.3291 12.4726 79.9874 12.4726C77.5191 12.4726 75.4635 13.9169 75.4635 17.0259C75.4635 20.1346 77.3291 21.8586 79.9808 21.8586C82.0524 21.8586 83.2871 20.7202 83.2871 20.7202V17.7566C82.8964 17.9749 81.8081 18.7306 80.3211 18.7306C78.7468 18.7306 78.1804 18.0059 78.1804 17.1653ZM45.3773 12.677C45.3776 12.679 45.5339 13.3496 45.3279 14.2266C45.2229 14.6726 45.03 15.0519 45.263 15.0519C45.4236 15.0519 45.424 14.9186 45.6329 14.4406C45.9386 13.742 46.5829 12.4703 48.0886 12.4703C49.5199 12.4703 50.1943 13.34 50.4176 14.1543C50.5876 14.7729 50.4389 15.0519 50.6463 15.0519C50.7936 15.0519 50.8446 14.7309 51.0259 14.3249C51.3516 13.5976 52.0599 12.4703 53.4926 12.4703C55.6542 12.4703 56.4796 14.0313 56.4796 16.3729V21.6492H53.2682V16.7849C53.2682 15.9739 53.1372 15.1873 52.3979 15.1873C51.7129 15.1873 51.3936 16.4013 51.3936 17.1849V21.6512H48.1233V16.7853C48.1233 15.7476 47.9769 15.1876 47.2476 15.1876C46.6163 15.1876 46.2479 16.3046 46.2479 17.1853V21.6496H42.9906V12.677H45.3773ZM67.0272 12.6893C67.0285 12.69 67.5828 13.0096 68.6588 13.0096C69.7368 13.0096 70.2842 12.6893 70.2842 12.6893V21.6516H67.0272V12.6893ZM93.9167 12.6893C93.918 12.69 94.4724 13.0096 95.5487 13.0096C96.6263 13.0096 97.174 12.6893 97.174 12.6893V21.6516H93.9167V12.6893ZM74.5955 9.96064V21.6516H71.3381V9.96064H74.5955ZM87.1527 9.96064C87.1531 9.96164 87.2877 10.2976 87.2877 11.297C87.2877 12.7726 86.9667 13.9736 86.8151 14.4313C86.7347 14.6736 86.5914 15.0476 86.7971 15.0543C86.9157 15.0579 86.9871 14.8793 87.1324 14.5693C87.2771 14.2589 87.9944 12.4723 89.8797 12.4723C92.4767 12.4723 92.8587 14.5989 92.8587 16.9019V21.6512H89.6014V16.7069C89.6014 15.6929 89.3887 15.1893 88.7091 15.1893C87.8884 15.1893 87.5984 16.4599 87.5984 17.1873V21.6512H84.3411V9.96031L87.1527 9.96064ZM100.661 12.677C100.661 12.679 100.818 13.3496 100.612 14.2266C100.507 14.6726 100.314 15.0519 100.547 15.0519C100.707 15.0519 100.708 14.9186 100.917 14.4406C101.222 13.742 101.867 12.4703 103.372 12.4703C104.869 12.4703 105.463 13.344 105.701 14.1543C105.861 14.6973 105.723 15.0519 105.93 15.0519C106.077 15.0519 106.128 14.7309 106.31 14.3249C106.635 13.5976 107.344 12.4703 108.776 12.4703C110.938 12.4703 111.763 14.0313 111.763 16.3729V21.6492H108.552V16.7849C108.552 15.9739 108.421 15.1873 107.682 15.1873C106.997 15.1873 106.677 16.4013 106.677 17.1849V21.6512H103.407V16.7853C103.407 15.7476 103.261 15.1876 102.531 15.1876C101.9 15.1876 101.532 16.3046 101.532 17.1853V21.6496H98.2743V12.677H100.661ZM68.6458 9.86997C67.5452 9.86997 66.6522 10.4526 66.6522 11.1713C66.6522 11.89 67.5448 12.4726 68.6458 12.4726C69.7472 12.4726 70.6398 11.89 70.6398 11.1713C70.6398 10.4526 69.7475 9.86997 68.6458 9.86997ZM95.5357 9.86997C94.4347 9.86997 93.5417 10.4526 93.5417 11.1713C93.5417 11.89 94.4344 12.4726 95.5357 12.4726C96.6367 12.4726 97.5297 11.89 97.5297 11.1713C97.5297 10.4526 96.637 9.86997 95.5357 9.86997Z" fill="black" style="mix-blend-mode:overlay"/>
<path fill-rule="evenodd" clip-rule="evenodd" d="M78.1804 17.1653C78.1804 16.3589 78.9301 15.6246 80.3061 15.6246C81.8051 15.6246 83.0114 16.3466 83.2817 16.5106V13.39C83.2817 13.39 82.3291 12.4726 79.9874 12.4726C77.5191 12.4726 75.4635 13.9169 75.4635 17.0259C75.4635 20.1346 77.3291 21.8586 79.9808 21.8586C82.0524 21.8586 83.2871 20.7202 83.2871 20.7202V17.7566C82.8964 17.9749 81.8081 18.7306 80.3211 18.7306C78.7468 18.7306 78.1804 18.0059 78.1804 17.1653ZM45.3773 12.677C45.3776 12.679 45.5339 13.3496 45.3279 14.2266C45.2229 14.6726 45.03 15.0519 45.263 15.0519C45.4236 15.0519 45.424 14.9186 45.6329 14.4406C45.9386 13.742 46.5829 12.4703 48.0886 12.4703C49.5199 12.4703 50.1943 13.34 50.4176 14.1543C50.5876 14.7729 50.4389 15.0519 50.6463 15.0519C50.7936 15.0519 50.8446 14.7309 51.0259 14.3249C51.3516 13.5976 52.0599 12.4703 53.4926 12.4703C55.6542 12.4703 56.4796 14.0313 56.4796 16.3729V21.6492H53.2682V16.7849C53.2682 15.9739 53.1372 15.1873 52.3979 15.1873C51.7129 15.1873 51.3936 16.4013 51.3936 17.1849V21.6512H48.1233V16.7853C48.1233 15.7476 47.9769 15.1876 47.2476 15.1876C46.6163 15.1876 46.2479 16.3046 46.2479 17.1853V21.6496H42.9906V12.677H45.3773ZM67.0272 12.6893C67.0285 12.69 67.5828 13.0096 68.6588 13.0096C69.7368 13.0096 70.2842 12.6893 70.2842 12.6893V21.6516H67.0272V12.6893ZM93.9167 12.6893C93.918 12.69 94.4724 13.0096 95.5487 13.0096C96.6263 13.0096 97.174 12.6893 97.174 12.6893V21.6516H93.9167V12.6893ZM74.5955 9.96064V21.6516H71.3381V9.96064H74.5955ZM87.1527 9.96064C87.1531 9.96164 87.2877 10.2976 87.2877 11.297C87.2877 12.7726 86.9667 13.9736 86.8151 14.4313C86.7347 14.6736 86.5914 15.0476 86.7971 15.0543C86.9157 15.0579 86.9871 14.8793 87.1324 14.5693C87.2771 14.2589 87.9944 12.4723 89.8797 12.4723C92.4767 12.4723 92.8587 14.5989 92.8587 16.9019V21.6512H89.6014V16.7069C89.6014 15.6929 89.3887 15.1893 88.7091 15.1893C87.8884 15.1893 87.5984 16.4599 87.5984 17.1873V21.6512H84.3411V9.96031L87.1527 9.96064ZM100.661 12.677C100.661 12.679 100.818 13.3496 100.612 14.2266C100.507 14.6726 100.314 15.0519 100.547 15.0519C100.707 15.0519 100.708 14.9186 100.917 14.4406C101.222 13.742 101.867 12.4703 103.372 12.4703C104.869 12.4703 105.463 13.344 105.701 14.1543C105.861 14.6973 105.723 15.0519 105.93 15.0519C106.077 15.0519 106.128 14.7309 106.31 14.3249C106.635 13.5976 107.344 12.4703 108.776 12.4703C110.938 12.4703 111.763 14.0313 111.763 16.3729V21.6492H108.552V16.7849C108.552 15.9739 108.421 15.1873 107.682 15.1873C106.997 15.1873 106.677 16.4013 106.677 17.1849V21.6512H103.407V16.7853C103.407 15.7476 103.261 15.1876 102.531 15.1876C101.9 15.1876 101.532 16.3046 101.532 17.1853V21.6496H98.2743V12.677H100.661ZM68.6458 9.86997C67.5452 9.86997 66.6522 10.4526 66.6522 11.1713C66.6522 11.89 67.5448 12.4726 68.6458 12.4726C69.7472 12.4726 70.6398 11.89 70.6398 11.1713C70.6398 10.4526 69.7475 9.86997 68.6458 9.86997ZM95.5357 9.86997C94.4347 9.86997 93.5417 10.4526 93.5417 11.1713C93.5417 11.89 94.4344 12.4726 95.5357 12.4726C96.6367 12.4726 97.5297 11.89 97.5297 11.1713C97.5297 10.4526 96.637 9.86997 95.5357 9.86997Z" fill="black" style="mix-blend-mode:overlay"/>
<path fill-rule="evenodd" clip-rule="evenodd" d="M117.312 19.7181C116.565 19.7181 116.016 18.7711 116.016 17.4515C116.016 16.1698 116.58 15.1855 117.286 15.1855C118.192 15.1855 118.578 16.0165 118.578 17.4515C118.578 18.9445 118.222 19.7181 117.312 19.7181ZM118.205 12.4672C116.532 12.4672 115.764 13.7221 115.431 14.4371C115.21 14.9095 115.222 15.0485 115.061 15.0485C114.828 15.0485 115.021 14.6691 115.126 14.2231C115.333 13.3448 115.176 12.6738 115.176 12.6738H112.79V24.1214H116.046V20.4921C116.431 21.1458 117.145 21.8441 118.245 21.8441C120.6 21.8441 121.785 19.8518 121.785 17.1601C121.785 14.1095 120.367 12.4672 118.206 12.4672" fill="#FF0000" style="mix-blend-mode:saturation"/>
<path fill-rule="evenodd" clip-rule="evenodd" d="M117.312 19.7181C116.565 19.7181 116.016 18.7711 116.016 17.4515C116.016 16.1698 116.58 15.1855 117.286 15.1855C118.192 15.1855 118.578 16.0165 118.578 17.4515C118.578 18.9445 118.222 19.7181 117.312 19.7181ZM118.205 12.4672C116.532 12.4672 115.764 13.7221 115.431 14.4371C115.21 14.9095 115.222 15.0485 115.061 15.0485C114.828 15.0485 115.021 14.6691 115.126 14.2231C115.333 13.3448 115.176 12.6738 115.176 12.6738H112.79V24.1214H116.046V20.4921C116.431 21.1458 117.145 21.8441 118.245 21.8441C120.6 21.8441 121.785 19.8518 121.785 17.1601C121.785 14.1095 120.367 12.4672 118.206 12.4672" fill="white" style="mix-blend-mode:difference"/>
<path fill-rule="evenodd" clip-rule="evenodd" d="M117.312 19.7181C116.565 19.7181 116.016 18.7711 116.016 17.4515C116.016 16.1698 116.58 15.1855 117.286 15.1855C118.192 15.1855 118.578 16.0165 118.578 17.4515C118.578 18.9445 118.222 19.7181 117.312 19.7181ZM118.205 12.4672C116.532 12.4672 115.764 13.7221 115.431 14.4371C115.21 14.9095 115.222 15.0485 115.061 15.0485C114.828 15.0485 115.021 14.6691 115.126 14.2231C115.333 13.3448 115.176 12.6738 115.176 12.6738H112.79V24.1214H116.046V20.4921C116.431 21.1458 117.145 21.8441 118.245 21.8441C120.6 21.8441 121.785 19.8518 121.785 17.1601C121.785 14.1095 120.367 12.4672 118.206 12.4672" fill="white" style="mix-blend-mode:saturation"/>
<path fill-rule="evenodd" clip-rule="evenodd" d="M117.312 19.7181C116.565 19.7181 116.016 18.7711 116.016 17.4515C116.016 16.1698 116.58 15.1855 117.286 15.1855C118.192 15.1855 118.578 16.0165 118.578 17.4515C118.578 18.9445 118.222 19.7181 117.312 19.7181ZM118.205 12.4672C116.532 12.4672 115.764 13.7221 115.431 14.4371C115.21 14.9095 115.222 15.0485 115.061 15.0485C114.828 15.0485 115.021 14.6691 115.126 14.2231C115.333 13.3448 115.176 12.6738 115.176 12.6738H112.79V24.1214H116.046V20.4921C116.431 21.1458 117.145 21.8441 118.245 21.8441C120.6 21.8441 121.785 19.8518 121.785 17.1601C121.785 14.1095 120.367 12.4672 118.206 12.4672" fill="black" style="mix-blend-mode:overlay"/>
<path fill-rule="evenodd" clip-rule="evenodd" d="M117.312 19.7181C116.565 19.7181 116.016 18.7711 116.016 17.4515C116.016 16.1698 116.58 15.1855 117.286 15.1855C118.192 15.1855 118.578 16.0165 118.578 17.4515C118.578 18.9445 118.222 19.7181 117.312 19.7181ZM118.205 12.4672C116.532 12.4672 115.764 13.7221 115.431 14.4371C115.21 14.9095 115.222 15.0485 115.061 15.0485C114.828 15.0485 115.021 14.6691 115.126 14.2231C115.333 13.3448 115.176 12.6738 115.176 12.6738H112.79V24.1214H116.046V20.4921C116.431 21.1458 117.145 21.8441 118.245 21.8441C120.6 21.8441 121.785 19.8518 121.785 17.1601C121.785 14.1095 120.367 12.4672 118.206 12.4672" fill="black" style="mix-blend-mode:overlay"/>
<path fill-rule="evenodd" clip-rule="evenodd" d="M117.312 19.7181C116.565 19.7181 116.016 18.7711 116.016 17.4515C116.016 16.1698 116.58 15.1855 117.286 15.1855C118.192 15.1855 118.578 16.0165 118.578 17.4515C118.578 18.9445 118.222 19.7181 117.312 19.7181ZM118.205 12.4672C116.532 12.4672 115.764 13.7221 115.431 14.4371C115.21 14.9095 115.222 15.0485 115.061 15.0485C114.828 15.0485 115.021 14.6691 115.126 14.2231C115.333 13.3448 115.176 12.6738 115.176 12.6738H112.79V24.1214H116.046V20.4921C116.431 21.1458 117.145 21.8441 118.245 21.8441C120.6 21.8441 121.785 19.8518 121.785 17.1601C121.785 14.1095 120.367 12.4672 118.206 12.4672" fill="black" style="mix-blend-mode:overlay"/>
<path fill-rule="evenodd" clip-rule="evenodd" d="M117.312 19.7181C116.565 19.7181 116.016 18.7711 116.016 17.4515C116.016 16.1698 116.58 15.1855 117.286 15.1855C118.192 15.1855 118.578 16.0165 118.578 17.4515C118.578 18.9445 118.222 19.7181 117.312 19.7181ZM118.205 12.4672C116.532 12.4672 115.764 13.7221 115.431 14.4371C115.21 14.9095 115.222 15.0485 115.061 15.0485C114.828 15.0485 115.021 14.6691 115.126 14.2231C115.333 13.3448 115.176 12.6738 115.176 12.6738H112.79V24.1214H116.046V20.4921C116.431 21.1458 117.145 21.8441 118.245 21.8441C120.6 21.8441 121.785 19.8518 121.785 17.1601C121.785 14.1095 120.367 12.4672 118.206 12.4672" fill="black" style="mix-blend-mode:overlay"/>
<path fill-rule="evenodd" clip-rule="evenodd" d="M31.4762 15.1759C31.6952 15.1499 31.9048 15.1485 32.0978 15.1759C32.2095 14.9199 32.2285 14.4789 32.1282 13.9985C31.9792 13.2845 31.7772 12.8525 31.3598 12.9199C30.9425 12.9872 30.9272 13.5045 31.0765 14.2182C31.1605 14.6199 31.3098 14.9632 31.4762 15.1759Z" fill="#FF0000" style="mix-blend-mode:saturation"/>
<path fill-rule="evenodd" clip-rule="evenodd" d="M31.4762 15.1759C31.6952 15.1499 31.9048 15.1485 32.0978 15.1759C32.2095 14.9199 32.2285 14.4789 32.1282 13.9985C31.9792 13.2845 31.7772 12.8525 31.3598 12.9199C30.9425 12.9872 30.9272 13.5045 31.0765 14.2182C31.1605 14.6199 31.3098 14.9632 31.4762 15.1759Z" fill="white" style="mix-blend-mode:difference"/>
<path fill-rule="evenodd" clip-rule="evenodd" d="M31.4762 15.1759C31.6952 15.1499 31.9048 15.1485 32.0978 15.1759C32.2095 14.9199 32.2285 14.4789 32.1282 13.9985C31.9792 13.2845 31.7772 12.8525 31.3598 12.9199C30.9425 12.9872 30.9272 13.5045 31.0765 14.2182C31.1605 14.6199 31.3098 14.9632 31.4762 15.1759Z" fill="white" style="mix-blend-mode:saturation"/>
<path fill-rule="evenodd" clip-rule="evenodd" d="M31.4762 15.1759C31.6952 15.1499 31.9048 15.1485 32.0978 15.1759C32.2095 14.9199 32.2285 14.4789 32.1282 13.9985C31.9792 13.2845 31.7772 12.8525 31.3598 12.9199C30.9425 12.9872 30.9272 13.5045 31.0765 14.2182C31.1605 14.6199 31.3098 14.9632 31.4762 15.1759Z" fill="black" style="mix-blend-mode:overlay"/>
<path fill-rule="evenodd" clip-rule="evenodd" d="M31.4762 15.1759C31.6952 15.1499 31.9048 15.1485 32.0978 15.1759C32.2095 14.9199 32.2285 14.4789 32.1282 13.9985C31.9792 13.2845 31.7772 12.8525 31.3598 12.9199C30.9425 12.9872 30.9272 13.5045 31.0765 14.2182C31.1605 14.6199 31.3098 14.9632 31.4762 15.1759Z" fill="black" style="mix-blend-mode:overlay"/>
<path fill-rule="evenodd" clip-rule="evenodd" d="M31.4762 15.1759C31.6952 15.1499 31.9048 15.1485 32.0978 15.1759C32.2095 14.9199 32.2285 14.4789 32.1282 13.9985C31.9792 13.2845 31.7772 12.8525 31.3598 12.9199C30.9425 12.9872 30.9272 13.5045 31.0765 14.2182C31.1605 14.6199 31.3098 14.9632 31.4762 15.1759Z" fill="black" style="mix-blend-mode:overlay"/>
<path fill-rule="evenodd" clip-rule="evenodd" d="M31.4762 15.1759C31.6952 15.1499 31.9048 15.1485 32.0978 15.1759C32.2095 14.9199 32.2285 14.4789 32.1282 13.9985C31.9792 13.2845 31.7772 12.8525 31.3598 12.9199C30.9425 12.9872 30.9272 13.5045 31.0765 14.2182C31.1605 14.6199 31.3098 14.9632 31.4762 15.1759Z" fill="black" style="mix-blend-mode:overlay"/>
<path fill-rule="evenodd" clip-rule="evenodd" d="M27.8958 15.7409C28.1941 15.8719 28.3778 15.9589 28.4495 15.8829C28.4958 15.8356 28.4818 15.7452 28.4105 15.6289C28.2631 15.3886 27.9601 15.1446 27.6385 15.0076C26.9811 14.7246 26.1968 14.8186 25.5918 15.2532C25.3921 15.3996 25.2028 15.6022 25.2298 15.7252C25.2385 15.7649 25.2685 15.7949 25.3385 15.8049C25.5031 15.8236 26.0785 15.5329 26.7415 15.4922C27.2091 15.4636 27.5971 15.6099 27.8958 15.7409Z" fill="#FF0000" style="mix-blend-mode:saturation"/>
<path fill-rule="evenodd" clip-rule="evenodd" d="M27.8958 15.7409C28.1941 15.8719 28.3778 15.9589 28.4495 15.8829C28.4958 15.8356 28.4818 15.7452 28.4105 15.6289C28.2631 15.3886 27.9601 15.1446 27.6385 15.0076C26.9811 14.7246 26.1968 14.8186 25.5918 15.2532C25.3921 15.3996 25.2028 15.6022 25.2298 15.7252C25.2385 15.7649 25.2685 15.7949 25.3385 15.8049C25.5031 15.8236 26.0785 15.5329 26.7415 15.4922C27.2091 15.4636 27.5971 15.6099 27.8958 15.7409Z" fill="white" style="mix-blend-mode:difference"/>
<path fill-rule="evenodd" clip-rule="evenodd" d="M27.8958 15.7409C28.1941 15.8719 28.3778 15.9589 28.4495 15.8829C28.4958 15.8356 28.4818 15.7452 28.4105 15.6289C28.2631 15.3886 27.9601 15.1446 27.6385 15.0076C26.9811 14.7246 26.1968 14.8186 25.5918 15.2532C25.3921 15.3996 25.2028 15.6022 25.2298 15.7252C25.2385 15.7649 25.2685 15.7949 25.3385 15.8049C25.5031 15.8236 26.0785 15.5329 26.7415 15.4922C27.2091 15.4636 27.5971 15.6099 27.8958 15.7409Z" fill="white" style="mix-blend-mode:saturation"/>
<path fill-rule="evenodd" clip-rule="evenodd" d="M27.8958 15.7409C28.1941 15.8719 28.3778 15.9589 28.4495 15.8829C28.4958 15.8356 28.4818 15.7452 28.4105 15.6289C28.2631 15.3886 27.9601 15.1446 27.6385 15.0076C26.9811 14.7246 26.1968 14.8186 25.5918 15.2532C25.3921 15.3996 25.2028 15.6022 25.2298 15.7252C25.2385 15.7649 25.2685 15.7949 25.3385 15.8049C25.5031 15.8236 26.0785 15.5329 26.7415 15.4922C27.2091 15.4636 27.5971 15.6099 27.8958 15.7409Z" fill="black" style="mix-blend-mode:overlay"/>
<path fill-rule="evenodd" clip-rule="evenodd" d="M27.8958 15.7409C28.1941 15.8719 28.3778 15.9589 28.4495 15.8829C28.4958 15.8356 28.4818 15.7452 28.4105 15.6289C28.2631 15.3886 27.9601 15.1446 27.6385 15.0076C26.9811 14.7246 26.1968 14.8186 25.5918 15.2532C25.3921 15.3996 25.2028 15.6022 25.2298 15.7252C25.2385 15.7649 25.2685 15.7949 25.3385 15.8049C25.5031 15.8236 26.0785 15.5329 26.7415 15.4922C27.2091 15.4636 27.5971 15.6099 27.8958 15.7409Z" fill="black" style="mix-blend-mode:overlay"/>
<path fill-rule="evenodd" clip-rule="evenodd" d="M27.8958 15.7409C28.1941 15.8719 28.3778 15.9589 28.4495 15.8829C28.4958 15.8356 28.4818 15.7452 28.4105 15.6289C28.2631 15.3886 27.9601 15.1446 27.6385 15.0076C26.9811 14.7246 26.1968 14.8186 25.5918 15.2532C25.3921 15.3996 25.2028 15.6022 25.2298 15.7252C25.2385 15.7649 25.2685 15.7949 25.3385 15.8049C25.5031 15.8236 26.0785 15.5329 26.7415 15.4922C27.2091 15.4636 27.5971 15.6099 27.8958 15.7409Z" fill="black" style="mix-blend-mode:overlay"/>
<path fill-rule="evenodd" clip-rule="evenodd" d="M27.8958 15.7409C28.1941 15.8719 28.3778 15.9589 28.4495 15.8829C28.4958 15.8356 28.4818 15.7452 28.4105 15.6289C28.2631 15.3886 27.9601 15.1446 27.6385 15.0076C26.9811 14.7246 26.1968 14.8186 25.5918 15.2532C25.3921 15.3996 25.2028 15.6022 25.2298 15.7252C25.2385 15.7649 25.2685 15.7949 25.3385 15.8049C25.5031 15.8236 26.0785 15.5329 26.7415 15.4922C27.2091 15.4636 27.5971 15.6099 27.8958 15.7409Z" fill="black" style="mix-blend-mode:overlay"/>
<path fill-rule="evenodd" clip-rule="evenodd" d="M27.2966 16.0836C26.9076 16.1449 26.6933 16.2733 26.5556 16.3923C26.4383 16.4949 26.3656 16.6086 26.3663 16.6883C26.3666 16.7263 26.383 16.7483 26.396 16.7593C26.4136 16.7749 26.4346 16.7836 26.46 16.7836C26.5476 16.7836 26.7446 16.7046 26.7446 16.7046C27.2856 16.5109 27.6426 16.5346 27.9963 16.5746C28.1916 16.5966 28.2843 16.6086 28.3269 16.5416C28.3396 16.5223 28.3549 16.4806 28.3159 16.4173C28.2249 16.2696 27.8319 16.0199 27.2966 16.0836Z" fill="#FF0000" style="mix-blend-mode:saturation"/>
<path fill-rule="evenodd" clip-rule="evenodd" d="M27.2966 16.0836C26.9076 16.1449 26.6933 16.2733 26.5556 16.3923C26.4383 16.4949 26.3656 16.6086 26.3663 16.6883C26.3666 16.7263 26.383 16.7483 26.396 16.7593C26.4136 16.7749 26.4346 16.7836 26.46 16.7836C26.5476 16.7836 26.7446 16.7046 26.7446 16.7046C27.2856 16.5109 27.6426 16.5346 27.9963 16.5746C28.1916 16.5966 28.2843 16.6086 28.3269 16.5416C28.3396 16.5223 28.3549 16.4806 28.3159 16.4173C28.2249 16.2696 27.8319 16.0199 27.2966 16.0836Z" fill="white" style="mix-blend-mode:difference"/>
<path fill-rule="evenodd" clip-rule="evenodd" d="M27.2966 16.0836C26.9076 16.1449 26.6933 16.2733 26.5556 16.3923C26.4383 16.4949 26.3656 16.6086 26.3663 16.6883C26.3666 16.7263 26.383 16.7483 26.396 16.7593C26.4136 16.7749 26.4346 16.7836 26.46 16.7836C26.5476 16.7836 26.7446 16.7046 26.7446 16.7046C27.2856 16.5109 27.6426 16.5346 27.9963 16.5746C28.1916 16.5966 28.2843 16.6086 28.3269 16.5416C28.3396 16.5223 28.3549 16.4806 28.3159 16.4173C28.2249 16.2696 27.8319 16.0199 27.2966 16.0836Z" fill="white" style="mix-blend-mode:saturation"/>
<path fill-rule="evenodd" clip-rule="evenodd" d="M27.2966 16.0836C26.9076 16.1449 26.6933 16.2733 26.5556 16.3923C26.4383 16.4949 26.3656 16.6086 26.3663 16.6883C26.3666 16.7263 26.383 16.7483 26.396 16.7593C26.4136 16.7749 26.4346 16.7836 26.46 16.7836C26.5476 16.7836 26.7446 16.7046 26.7446 16.7046C27.2856 16.5109 27.6426 16.5346 27.9963 16.5746C28.1916 16.5966 28.2843 16.6086 28.3269 16.5416C28.3396 16.5223 28.3549 16.4806 28.3159 16.4173C28.2249 16.2696 27.8319 16.0199 27.2966 16.0836Z" fill="black" style="mix-blend-mode:overlay"/>
<path fill-rule="evenodd" clip-rule="evenodd" d="M27.2966 16.0836C26.9076 16.1449 26.6933 16.2733 26.5556 16.3923C26.4383 16.4949 26.3656 16.6086 26.3663 16.6883C26.3666 16.7263 26.383 16.7483 26.396 16.7593C26.4136 16.7749 26.4346 16.7836 26.46 16.7836C26.5476 16.7836 26.7446 16.7046 26.7446 16.7046C27.2856 16.5109 27.6426 16.5346 27.9963 16.5746C28.1916 16.5966 28.2843 16.6086 28.3269 16.5416C28.3396 16.5223 28.3549 16.4806 28.3159 16.4173C28.2249 16.2696 27.8319 16.0199 27.2966 16.0836Z" fill="black" style="mix-blend-mode:overlay"/>
<path fill-rule="evenodd" clip-rule="evenodd" d="M27.2966 16.0836C26.9076 16.1449 26.6933 16.2733 26.5556 16.3923C26.4383 16.4949 26.3656 16.6086 26.3663 16.6883C26.3666 16.7263 26.383 16.7483 26.396 16.7593C26.4136 16.7749 26.4346 16.7836 26.46 16.7836C26.5476 16.7836 26.7446 16.7046 26.7446 16.7046C27.2856 16.5109 27.6426 16.5346 27.9963 16.5746C28.1916 16.5966 28.2843 16.6086 28.3269 16.5416C28.3396 16.5223 28.3549 16.4806 28.3159 16.4173C28.2249 16.2696 27.8319 16.0199 27.2966 16.0836Z" fill="black" style="mix-blend-mode:overlay"/>
<path fill-rule="evenodd" clip-rule="evenodd" d="M27.2966 16.0836C26.9076 16.1449 26.6933 16.2733 26.5556 16.3923C26.4383 16.4949 26.3656 16.6086 26.3663 16.6883C26.3666 16.7263 26.383 16.7483 26.396 16.7593C26.4136 16.7749 26.4346 16.7836 26.46 16.7836C26.5476 16.7836 26.7446 16.7046 26.7446 16.7046C27.2856 16.5109 27.6426 16.5346 27.9963 16.5746C28.1916 16.5966 28.2843 16.6086 28.3269 16.5416C28.3396 16.5223 28.3549 16.4806 28.3159 16.4173C28.2249 16.2696 27.8319 16.0199 27.2966 16.0836Z" fill="black" style="mix-blend-mode:overlay"/>
<path fill-rule="evenodd" clip-rule="evenodd" d="M30.268 17.341C30.532 17.4707 30.8227 17.4197 30.9173 17.2274C31.012 17.035 30.8746 16.7737 30.6106 16.644C30.3466 16.5144 30.056 16.5653 29.9613 16.7577C29.8667 16.9503 30.004 17.2113 30.268 17.341Z" fill="#FF0000" style="mix-blend-mode:saturation"/>
<path fill-rule="evenodd" clip-rule="evenodd" d="M30.268 17.341C30.532 17.4707 30.8227 17.4197 30.9173 17.2274C31.012 17.035 30.8746 16.7737 30.6106 16.644C30.3466 16.5144 30.056 16.5653 29.9613 16.7577C29.8667 16.9503 30.004 17.2113 30.268 17.341Z" fill="white" style="mix-blend-mode:difference"/>
<path fill-rule="evenodd" clip-rule="evenodd" d="M30.268 17.341C30.532 17.4707 30.8227 17.4197 30.9173 17.2274C31.012 17.035 30.8746 16.7737 30.6106 16.644C30.3466 16.5144 30.056 16.5653 29.9613 16.7577C29.8667 16.9503 30.004 17.2113 30.268 17.341Z" fill="white" style="mix-blend-mode:saturation"/>
<path fill-rule="evenodd" clip-rule="evenodd" d="M30.268 17.341C30.532 17.4707 30.8227 17.4197 30.9173 17.2274C31.012 17.035 30.8746 16.7737 30.6106 16.644C30.3466 16.5144 30.056 16.5653 29.9613 16.7577C29.8667 16.9503 30.004 17.2113 30.268 17.341Z" fill="black" style="mix-blend-mode:overlay"/>
<path fill-rule="evenodd" clip-rule="evenodd" d="M30.268 17.341C30.532 17.4707 30.8227 17.4197 30.9173 17.2274C31.012 17.035 30.8746 16.7737 30.6106 16.644C30.3466 16.5144 30.056 16.5653 29.9613 16.7577C29.8667 16.9503 30.004 17.2113 30.268 17.341Z" fill="black" style="mix-blend-mode:overlay"/>
<path fill-rule="evenodd" clip-rule="evenodd" d="M30.268 17.341C30.532 17.4707 30.8227 17.4197 30.9173 17.2274C31.012 17.035 30.8746 16.7737 30.6106 16.644C30.3466 16.5144 30.056 16.5653 29.9613 16.7577C29.8667 16.9503 30.004 17.2113 30.268 17.341Z" fill="black" style="mix-blend-mode:overlay"/>
<path fill-rule="evenodd" clip-rule="evenodd" d="M30.268 17.341C30.532 17.4707 30.8227 17.4197 30.9173 17.2274C31.012 17.035 30.8746 16.7737 30.6106 16.644C30.3466 16.5144 30.056 16.5653 29.9613 16.7577C29.8667 16.9503 30.004 17.2113 30.268 17.341Z" fill="black" style="mix-blend-mode:overlay"/>
<path fill-rule="evenodd" clip-rule="evenodd" d="M31.9655 15.8581C31.7512 15.8544 31.5732 16.0898 31.5682 16.3841C31.5632 16.6784 31.7332 16.9194 31.9475 16.9231C32.1619 16.9268 32.3399 16.6914 32.3449 16.3971C32.3499 16.1031 32.1799 15.8618 31.9655 15.8581Z" fill="#FF0000" style="mix-blend-mode:saturation"/>
<path fill-rule="evenodd" clip-rule="evenodd" d="M31.9655 15.8581C31.7512 15.8544 31.5732 16.0898 31.5682 16.3841C31.5632 16.6784 31.7332 16.9194 31.9475 16.9231C32.1619 16.9268 32.3399 16.6914 32.3449 16.3971C32.3499 16.1031 32.1799 15.8618 31.9655 15.8581Z" fill="white" style="mix-blend-mode:difference"/>
<path fill-rule="evenodd" clip-rule="evenodd" d="M31.9655 15.8581C31.7512 15.8544 31.5732 16.0898 31.5682 16.3841C31.5632 16.6784 31.7332 16.9194 31.9475 16.9231C32.1619 16.9268 32.3399 16.6914 32.3449 16.3971C32.3499 16.1031 32.1799 15.8618 31.9655 15.8581Z" fill="white" style="mix-blend-mode:saturation"/>
<path fill-rule="evenodd" clip-rule="evenodd" d="M31.9655 15.8581C31.7512 15.8544 31.5732 16.0898 31.5682 16.3841C31.5632 16.6784 31.7332 16.9194 31.9475 16.9231C32.1619 16.9268 32.3399 16.6914 32.3449 16.3971C32.3499 16.1031 32.1799 15.8618 31.9655 15.8581Z" fill="black" style="mix-blend-mode:overlay"/>
<path fill-rule="evenodd" clip-rule="evenodd" d="M31.9655 15.8581C31.7512 15.8544 31.5732 16.0898 31.5682 16.3841C31.5632 16.6784 31.7332 16.9194 31.9475 16.9231C32.1619 16.9268 32.3399 16.6914 32.3449 16.3971C32.3499 16.1031 32.1799 15.8618 31.9655 15.8581Z" fill="black" style="mix-blend-mode:overlay"/>
<path fill-rule="evenodd" clip-rule="evenodd" d="M31.9655 15.8581C31.7512 15.8544 31.5732 16.0898 31.5682 16.3841C31.5632 16.6784 31.7332 16.9194 31.9475 16.9231C32.1619 16.9268 32.3399 16.6914 32.3449 16.3971C32.3499 16.1031 32.1799 15.8618 31.9655 15.8581Z" fill="black" style="mix-blend-mode:overlay"/>
<path fill-rule="evenodd" clip-rule="evenodd" d="M31.9655 15.8581C31.7512 15.8544 31.5732 16.0898 31.5682 16.3841C31.5632 16.6784 31.7332 16.9194 31.9475 16.9231C32.1619 16.9268 32.3399 16.6914 32.3449 16.3971C32.3499 16.1031 32.1799 15.8618 31.9655 15.8581Z" fill="black" style="mix-blend-mode:overlay"/>
<path fill-rule="evenodd" clip-rule="evenodd" d="M17.559 21.1612C17.5057 21.0942 17.418 21.1146 17.333 21.1346C17.2737 21.1486 17.2067 21.1639 17.133 21.1629C16.9753 21.1599 16.8417 21.0926 16.7667 20.9772C16.669 20.8272 16.6747 20.6036 16.7823 20.3476L16.8327 20.2329C17.0047 19.8469 17.2923 19.2013 16.9693 18.5859C16.726 18.1226 16.3293 17.8343 15.8523 17.7736C15.3943 17.7156 14.923 17.8853 14.6223 18.2169C14.148 18.7402 14.0737 19.4526 14.1653 19.7042C14.199 19.7962 14.2517 19.8219 14.2897 19.8272C14.3703 19.8379 14.4897 19.7792 14.5643 19.5782L14.5857 19.5129C14.619 19.4066 14.681 19.2086 14.7827 19.0499C14.9053 18.8586 15.096 18.7269 15.32 18.6786C15.548 18.6296 15.7813 18.6733 15.9767 18.8013C16.309 19.0186 16.437 19.4259 16.295 19.8142C16.2217 20.0152 16.1023 20.3996 16.1287 20.7152C16.182 21.3542 16.575 21.6109 16.928 21.6382C17.2713 21.6512 17.5113 21.4582 17.572 21.3176C17.6077 21.2342 17.5777 21.1836 17.558 21.1619" fill="#FF0000" style="mix-blend-mode:saturation"/>
<path fill-rule="evenodd" clip-rule="evenodd" d="M17.559 21.1612C17.5057 21.0942 17.418 21.1146 17.333 21.1346C17.2737 21.1486 17.2067 21.1639 17.133 21.1629C16.9753 21.1599 16.8417 21.0926 16.7667 20.9772C16.669 20.8272 16.6747 20.6036 16.7823 20.3476L16.8327 20.2329C17.0047 19.8469 17.2923 19.2013 16.9693 18.5859C16.726 18.1226 16.3293 17.8343 15.8523 17.7736C15.3943 17.7156 14.923 17.8853 14.6223 18.2169C14.148 18.7402 14.0737 19.4526 14.1653 19.7042C14.199 19.7962 14.2517 19.8219 14.2897 19.8272C14.3703 19.8379 14.4897 19.7792 14.5643 19.5782L14.5857 19.5129C14.619 19.4066 14.681 19.2086 14.7827 19.0499C14.9053 18.8586 15.096 18.7269 15.32 18.6786C15.548 18.6296 15.7813 18.6733 15.9767 18.8013C16.309 19.0186 16.437 19.4259 16.295 19.8142C16.2217 20.0152 16.1023 20.3996 16.1287 20.7152C16.182 21.3542 16.575 21.6109 16.928 21.6382C17.2713 21.6512 17.5113 21.4582 17.572 21.3176C17.6077 21.2342 17.5777 21.1836 17.558 21.1619" fill="white" style="mix-blend-mode:difference"/>
<path fill-rule="evenodd" clip-rule="evenodd" d="M17.559 21.1612C17.5057 21.0942 17.418 21.1146 17.333 21.1346C17.2737 21.1486 17.2067 21.1639 17.133 21.1629C16.9753 21.1599 16.8417 21.0926 16.7667 20.9772C16.669 20.8272 16.6747 20.6036 16.7823 20.3476L16.8327 20.2329C17.0047 19.8469 17.2923 19.2013 16.9693 18.5859C16.726 18.1226 16.3293 17.8343 15.8523 17.7736C15.3943 17.7156 14.923 17.8853 14.6223 18.2169C14.148 18.7402 14.0737 19.4526 14.1653 19.7042C14.199 19.7962 14.2517 19.8219 14.2897 19.8272C14.3703 19.8379 14.4897 19.7792 14.5643 19.5782L14.5857 19.5129C14.619 19.4066 14.681 19.2086 14.7827 19.0499C14.9053 18.8586 15.096 18.7269 15.32 18.6786C15.548 18.6296 15.7813 18.6733 15.9767 18.8013C16.309 19.0186 16.437 19.4259 16.295 19.8142C16.2217 20.0152 16.1023 20.3996 16.1287 20.7152C16.182 21.3542 16.575 21.6109 16.928 21.6382C17.2713 21.6512 17.5113 21.4582 17.572 21.3176C17.6077 21.2342 17.5777 21.1836 17.558 21.1619" fill="white" style="mix-blend-mode:saturation"/>
<path fill-rule="evenodd" clip-rule="evenodd" d="M17.559 21.1612C17.5057 21.0942 17.418 21.1146 17.333 21.1346C17.2737 21.1486 17.2067 21.1639 17.133 21.1629C16.9753 21.1599 16.8417 21.0926 16.7667 20.9772C16.669 20.8272 16.6747 20.6036 16.7823 20.3476L16.8327 20.2329C17.0047 19.8469 17.2923 19.2013 16.9693 18.5859C16.726 18.1226 16.3293 17.8343 15.8523 17.7736C15.3943 17.7156 14.923 17.8853 14.6223 18.2169C14.148 18.7402 14.0737 19.4526 14.1653 19.7042C14.199 19.7962 14.2517 19.8219 14.2897 19.8272C14.3703 19.8379 14.4897 19.7792 14.5643 19.5782L14.5857 19.5129C14.619 19.4066 14.681 19.2086 14.7827 19.0499C14.9053 18.8586 15.096 18.7269 15.32 18.6786C15.548 18.6296 15.7813 18.6733 15.9767 18.8013C16.309 19.0186 16.437 19.4259 16.295 19.8142C16.2217 20.0152 16.1023 20.3996 16.1287 20.7152C16.182 21.3542 16.575 21.6109 16.928 21.6382C17.2713 21.6512 17.5113 21.4582 17.572 21.3176C17.6077 21.2342 17.5777 21.1836 17.558 21.1619" fill="black" style="mix-blend-mode:overlay"/>
<path fill-rule="evenodd" clip-rule="evenodd" d="M17.559 21.1612C17.5057 21.0942 17.418 21.1146 17.333 21.1346C17.2737 21.1486 17.2067 21.1639 17.133 21.1629C16.9753 21.1599 16.8417 21.0926 16.7667 20.9772C16.669 20.8272 16.6747 20.6036 16.7823 20.3476L16.8327 20.2329C17.0047 19.8469 17.2923 19.2013 16.9693 18.5859C16.726 18.1226 16.3293 17.8343 15.8523 17.7736C15.3943 17.7156 14.923 17.8853 14.6223 18.2169C14.148 18.7402 14.0737 19.4526 14.1653 19.7042C14.199 19.7962 14.2517 19.8219 14.2897 19.8272C14.3703 19.8379 14.4897 19.7792 14.5643 19.5782L14.5857 19.5129C14.619 19.4066 14.681 19.2086 14.7827 19.0499C14.9053 18.8586 15.096 18.7269 15.32 18.6786C15.548 18.6296 15.7813 18.6733 15.9767 18.8013C16.309 19.0186 16.437 19.4259 16.295 19.8142C16.2217 20.0152 16.1023 20.3996 16.1287 20.7152C16.182 21.3542 16.575 21.6109 16.928 21.6382C17.2713 21.6512 17.5113 21.4582 17.572 21.3176C17.6077 21.2342 17.5777 21.1836 17.558 21.1619" fill="black" style="mix-blend-mode:overlay"/>
<path fill-rule="evenodd" clip-rule="evenodd" d="M17.559 21.1612C17.5057 21.0942 17.418 21.1146 17.333 21.1346C17.2737 21.1486 17.2067 21.1639 17.133 21.1629C16.9753 21.1599 16.8417 21.0926 16.7667 20.9772C16.669 20.8272 16.6747 20.6036 16.7823 20.3476L16.8327 20.2329C17.0047 19.8469 17.2923 19.2013 16.9693 18.5859C16.726 18.1226 16.3293 17.8343 15.8523 17.7736C15.3943 17.7156 14.923 17.8853 14.6223 18.2169C14.148 18.7402 14.0737 19.4526 14.1653 19.7042C14.199 19.7962 14.2517 19.8219 14.2897 19.8272C14.3703 19.8379 14.4897 19.7792 14.5643 19.5782L14.5857 19.5129C14.619 19.4066 14.681 19.2086 14.7827 19.0499C14.9053 18.8586 15.096 18.7269 15.32 18.6786C15.548 18.6296 15.7813 18.6733 15.9767 18.8013C16.309 19.0186 16.437 19.4259 16.295 19.8142C16.2217 20.0152 16.1023 20.3996 16.1287 20.7152C16.182 21.3542 16.575 21.6109 16.928 21.6382C17.2713 21.6512 17.5113 21.4582 17.572 21.3176C17.6077 21.2342 17.5777 21.1836 17.558 21.1619" fill="black" style="mix-blend-mode:overlay"/>
<path fill-rule="evenodd" clip-rule="evenodd" d="M17.559 21.1612C17.5057 21.0942 17.418 21.1146 17.333 21.1346C17.2737 21.1486 17.2067 21.1639 17.133 21.1629C16.9753 21.1599 16.8417 21.0926 16.7667 20.9772C16.669 20.8272 16.6747 20.6036 16.7823 20.3476L16.8327 20.2329C17.0047 19.8469 17.2923 19.2013 16.9693 18.5859C16.726 18.1226 16.3293 17.8343 15.8523 17.7736C15.3943 17.7156 14.923 17.8853 14.6223 18.2169C14.148 18.7402 14.0737 19.4526 14.1653 19.7042C14.199 19.7962 14.2517 19.8219 14.2897 19.8272C14.3703 19.8379 14.4897 19.7792 14.5643 19.5782L14.5857 19.5129C14.619 19.4066 14.681 19.2086 14.7827 19.0499C14.9053 18.8586 15.096 18.7269 15.32 18.6786C15.548 18.6296 15.7813 18.6733 15.9767 18.8013C16.309 19.0186 16.437 19.4259 16.295 19.8142C16.2217 20.0152 16.1023 20.3996 16.1287 20.7152C16.182 21.3542 16.575 21.6109 16.928 21.6382C17.2713 21.6512 17.5113 21.4582 17.572 21.3176C17.6077 21.2342 17.5777 21.1836 17.558 21.1619" fill="black" style="mix-blend-mode:overlay"/>
<path fill-rule="evenodd" clip-rule="evenodd" d="M20.8245 9.42473C21.9445 8.13074 23.3228 7.00575 24.5578 6.37408C24.6005 6.35208 24.6458 6.39842 24.6228 6.44042C24.5248 6.61808 24.3358 6.99841 24.2762 7.28674C24.2668 7.33174 24.3158 7.36541 24.3538 7.33975C25.1222 6.81608 26.4585 6.25475 27.6308 6.18275C27.6811 6.17975 27.7055 6.24408 27.6655 6.27508C27.4871 6.41175 27.2921 6.60108 27.1498 6.79242C27.1255 6.82508 27.1485 6.87175 27.1891 6.87208C28.0121 6.87808 29.1725 7.16608 29.9288 7.59041C29.9798 7.61908 29.9435 7.71807 29.8861 7.70507C28.7418 7.44274 26.8688 7.24375 24.9228 7.71841C23.1858 8.14208 21.8598 8.7964 20.8928 9.49973C20.8438 9.5354 20.7848 9.4704 20.8245 9.42473ZM26.4018 21.962L26.4021 21.9627L26.4028 21.964L26.4018 21.962ZM31.0198 22.507C31.0531 22.493 31.0758 22.4553 31.0721 22.4177C31.0675 22.3713 31.0261 22.3377 30.9798 22.3423C30.9798 22.3423 28.5901 22.696 26.3325 21.8697C26.5785 21.0703 27.2321 21.359 28.2205 21.4387C30.0018 21.545 31.5985 21.2847 32.7784 20.946C33.8008 20.6527 35.1438 20.074 36.1868 19.2507C36.5384 20.0233 36.6628 20.874 36.6628 20.874C36.6628 20.874 36.9351 20.8253 37.1628 20.9653C37.3778 21.0977 37.5354 21.3727 37.4278 22.084C37.2084 23.4127 36.6438 24.4913 35.6944 25.4836C35.1164 26.1056 34.4151 26.6463 33.6124 27.0396C33.1861 27.2636 32.7324 27.4573 32.2528 27.6136C28.6741 28.7826 25.0108 27.4976 23.8302 24.7383C23.7358 24.531 23.6562 24.3137 23.5935 24.0867C23.0905 22.2683 23.5175 20.0867 24.8528 18.7134C24.9352 18.626 25.0192 18.5224 25.0192 18.3927C25.0192 18.2844 24.9502 18.17 24.8905 18.0887C24.4232 17.411 22.8048 16.2564 23.1298 14.0217C23.3632 12.4164 24.7672 11.2857 26.0761 11.3527L26.4078 11.3717C26.9751 11.4054 27.4698 11.4781 27.9368 11.4977C28.7185 11.5317 29.4211 11.4181 30.2538 10.7244C30.5345 10.4904 30.7598 10.2874 31.1408 10.2231C31.1808 10.2161 31.2805 10.1804 31.4795 10.1897C31.6828 10.2007 31.8761 10.2564 32.0498 10.3721C32.7171 10.8161 32.8118 11.8917 32.8464 12.6784C32.8661 13.1274 32.9204 14.214 32.9391 14.526C32.9814 15.2394 33.1691 15.3397 33.5484 15.4647C33.7618 15.535 33.9598 15.5874 34.2518 15.6694C35.1351 15.9174 35.6588 16.169 35.9891 16.4924C36.1861 16.6944 36.2778 16.909 36.3061 17.1137C36.4101 17.8737 35.7161 18.8123 33.8784 19.6653C31.8698 20.5977 29.4328 20.8337 27.7491 20.646L27.1591 20.5793C25.8125 20.398 25.0442 22.1383 25.8525 23.331C26.3735 24.0997 27.7925 24.5997 29.2121 24.6C32.4671 24.6003 34.9691 23.2103 35.8998 22.01L35.9741 21.904C36.0201 21.835 35.9821 21.797 35.9251 21.836C35.1648 22.3563 31.7875 24.422 28.1748 23.8003C28.1748 23.8003 27.7358 23.728 27.3351 23.5723C27.0168 23.4483 26.3501 23.1417 26.2691 22.458C29.1845 23.3597 31.0198 22.507 31.0198 22.507ZM15.0069 15.5787C13.9929 15.7757 13.0992 16.3504 12.5529 17.1444C12.2262 16.872 11.6179 16.3447 11.5102 16.139C10.6379 14.4824 12.4622 11.2617 13.7369 9.44273C16.8869 4.94775 21.8202 1.54544 24.1038 2.16277C24.4752 2.26777 25.7048 3.69343 25.7048 3.69343C25.7048 3.69343 23.4218 4.96009 21.3048 6.72575C18.4522 8.92207 16.2979 12.1144 15.0069 15.5787ZM16.7105 23.1803C16.5572 23.2067 16.4005 23.217 16.2425 23.213C14.7169 23.172 13.0692 21.7987 12.9056 20.17C12.7246 18.3697 13.6446 16.9844 15.2732 16.6557C15.4679 16.6164 15.7032 16.5937 15.9569 16.607C16.8695 16.657 18.2142 17.3577 18.5212 19.3457C18.7932 21.1063 18.3612 22.899 16.7105 23.1803ZM37.3758 19.9923C37.3628 19.946 37.2774 19.635 37.1604 19.26C37.0434 18.8847 36.9224 18.621 36.9224 18.621C37.3918 17.9187 37.4001 17.2904 37.3374 16.9347C37.2708 16.4937 37.0871 16.118 36.7171 15.7294C36.3471 15.341 35.5901 14.943 34.5264 14.6444L33.9684 14.4894C33.9658 14.4664 33.9391 13.1737 33.9151 12.6187C33.8974 12.2174 33.8631 11.5911 33.6688 10.9744C33.4371 10.1394 33.0338 9.40873 32.5301 8.9414C33.9201 7.50074 34.7878 5.91342 34.7854 4.55209C34.7814 1.93377 31.5658 1.14145 27.6028 2.78244L26.7631 3.13877C26.7595 3.1351 25.2452 1.64944 25.2225 1.62944C20.7042 -2.31154 6.57759 13.3907 11.0939 17.2044L12.0809 18.0407C11.8249 18.704 11.7242 19.464 11.8066 20.281C11.9119 21.3307 12.4532 22.3367 13.3309 23.114C14.1639 23.852 15.2592 24.3193 16.3219 24.3183C18.0795 28.3686 22.0955 30.8533 26.8041 30.9933C31.8551 31.1433 36.0951 28.7733 37.8718 24.516C37.9881 24.2173 38.4811 22.871 38.4811 21.6823C38.4811 20.488 37.8058 19.9923 37.3758 19.9923Z" fill="#FF0000" style="mix-blend-mode:saturation"/>
<path fill-rule="evenodd" clip-rule="evenodd" d="M20.8245 9.42473C21.9445 8.13074 23.3228 7.00575 24.5578 6.37408C24.6005 6.35208 24.6458 6.39842 24.6228 6.44042C24.5248 6.61808 24.3358 6.99841 24.2762 7.28674C24.2668 7.33174 24.3158 7.36541 24.3538 7.33975C25.1222 6.81608 26.4585 6.25475 27.6308 6.18275C27.6811 6.17975 27.7055 6.24408 27.6655 6.27508C27.4871 6.41175 27.2921 6.60108 27.1498 6.79242C27.1255 6.82508 27.1485 6.87175 27.1891 6.87208C28.0121 6.87808 29.1725 7.16608 29.9288 7.59041C29.9798 7.61908 29.9435 7.71807 29.8861 7.70507C28.7418 7.44274 26.8688 7.24375 24.9228 7.71841C23.1858 8.14208 21.8598 8.7964 20.8928 9.49973C20.8438 9.5354 20.7848 9.4704 20.8245 9.42473ZM26.4018 21.962L26.4021 21.9627L26.4028 21.964L26.4018 21.962ZM31.0198 22.507C31.0531 22.493 31.0758 22.4553 31.0721 22.4177C31.0675 22.3713 31.0261 22.3377 30.9798 22.3423C30.9798 22.3423 28.5901 22.696 26.3325 21.8697C26.5785 21.0703 27.2321 21.359 28.2205 21.4387C30.0018 21.545 31.5985 21.2847 32.7784 20.946C33.8008 20.6527 35.1438 20.074 36.1868 19.2507C36.5384 20.0233 36.6628 20.874 36.6628 20.874C36.6628 20.874 36.9351 20.8253 37.1628 20.9653C37.3778 21.0977 37.5354 21.3727 37.4278 22.084C37.2084 23.4127 36.6438 24.4913 35.6944 25.4836C35.1164 26.1056 34.4151 26.6463 33.6124 27.0396C33.1861 27.2636 32.7324 27.4573 32.2528 27.6136C28.6741 28.7826 25.0108 27.4976 23.8302 24.7383C23.7358 24.531 23.6562 24.3137 23.5935 24.0867C23.0905 22.2683 23.5175 20.0867 24.8528 18.7134C24.9352 18.626 25.0192 18.5224 25.0192 18.3927C25.0192 18.2844 24.9502 18.17 24.8905 18.0887C24.4232 17.411 22.8048 16.2564 23.1298 14.0217C23.3632 12.4164 24.7672 11.2857 26.0761 11.3527L26.4078 11.3717C26.9751 11.4054 27.4698 11.4781 27.9368 11.4977C28.7185 11.5317 29.4211 11.4181 30.2538 10.7244C30.5345 10.4904 30.7598 10.2874 31.1408 10.2231C31.1808 10.2161 31.2805 10.1804 31.4795 10.1897C31.6828 10.2007 31.8761 10.2564 32.0498 10.3721C32.7171 10.8161 32.8118 11.8917 32.8464 12.6784C32.8661 13.1274 32.9204 14.214 32.9391 14.526C32.9814 15.2394 33.1691 15.3397 33.5484 15.4647C33.7618 15.535 33.9598 15.5874 34.2518 15.6694C35.1351 15.9174 35.6588 16.169 35.9891 16.4924C36.1861 16.6944 36.2778 16.909 36.3061 17.1137C36.4101 17.8737 35.7161 18.8123 33.8784 19.6653C31.8698 20.5977 29.4328 20.8337 27.7491 20.646L27.1591 20.5793C25.8125 20.398 25.0442 22.1383 25.8525 23.331C26.3735 24.0997 27.7925 24.5997 29.2121 24.6C32.4671 24.6003 34.9691 23.2103 35.8998 22.01L35.9741 21.904C36.0201 21.835 35.9821 21.797 35.9251 21.836C35.1648 22.3563 31.7875 24.422 28.1748 23.8003C28.1748 23.8003 27.7358 23.728 27.3351 23.5723C27.0168 23.4483 26.3501 23.1417 26.2691 22.458C29.1845 23.3597 31.0198 22.507 31.0198 22.507ZM15.0069 15.5787C13.9929 15.7757 13.0992 16.3504 12.5529 17.1444C12.2262 16.872 11.6179 16.3447 11.5102 16.139C10.6379 14.4824 12.4622 11.2617 13.7369 9.44273C16.8869 4.94775 21.8202 1.54544 24.1038 2.16277C24.4752 2.26777 25.7048 3.69343 25.7048 3.69343C25.7048 3.69343 23.4218 4.96009 21.3048 6.72575C18.4522 8.92207 16.2979 12.1144 15.0069 15.5787ZM16.7105 23.1803C16.5572 23.2067 16.4005 23.217 16.2425 23.213C14.7169 23.172 13.0692 21.7987 12.9056 20.17C12.7246 18.3697 13.6446 16.9844 15.2732 16.6557C15.4679 16.6164 15.7032 16.5937 15.9569 16.607C16.8695 16.657 18.2142 17.3577 18.5212 19.3457C18.7932 21.1063 18.3612 22.899 16.7105 23.1803ZM37.3758 19.9923C37.3628 19.946 37.2774 19.635 37.1604 19.26C37.0434 18.8847 36.9224 18.621 36.9224 18.621C37.3918 17.9187 37.4001 17.2904 37.3374 16.9347C37.2708 16.4937 37.0871 16.118 36.7171 15.7294C36.3471 15.341 35.5901 14.943 34.5264 14.6444L33.9684 14.4894C33.9658 14.4664 33.9391 13.1737 33.9151 12.6187C33.8974 12.2174 33.8631 11.5911 33.6688 10.9744C33.4371 10.1394 33.0338 9.40873 32.5301 8.9414C33.9201 7.50074 34.7878 5.91342 34.7854 4.55209C34.7814 1.93377 31.5658 1.14145 27.6028 2.78244L26.7631 3.13877C26.7595 3.1351 25.2452 1.64944 25.2225 1.62944C20.7042 -2.31154 6.57759 13.3907 11.0939 17.2044L12.0809 18.0407C11.8249 18.704 11.7242 19.464 11.8066 20.281C11.9119 21.3307 12.4532 22.3367 13.3309 23.114C14.1639 23.852 15.2592 24.3193 16.3219 24.3183C18.0795 28.3686 22.0955 30.8533 26.8041 30.9933C31.8551 31.1433 36.0951 28.7733 37.8718 24.516C37.9881 24.2173 38.4811 22.871 38.4811 21.6823C38.4811 20.488 37.8058 19.9923 37.3758 19.9923Z" fill="white" style="mix-blend-mode:difference"/>
<path fill-rule="evenodd" clip-rule="evenodd" d="M20.8245 9.42473C21.9445 8.13074 23.3228 7.00575 24.5578 6.37408C24.6005 6.35208 24.6458 6.39842 24.6228 6.44042C24.5248 6.61808 24.3358 6.99841 24.2762 7.28674C24.2668 7.33174 24.3158 7.36541 24.3538 7.33975C25.1222 6.81608 26.4585 6.25475 27.6308 6.18275C27.6811 6.17975 27.7055 6.24408 27.6655 6.27508C27.4871 6.41175 27.2921 6.60108 27.1498 6.79242C27.1255 6.82508 27.1485 6.87175 27.1891 6.87208C28.0121 6.87808 29.1725 7.16608 29.9288 7.59041C29.9798 7.61908 29.9435 7.71807 29.8861 7.70507C28.7418 7.44274 26.8688 7.24375 24.9228 7.71841C23.1858 8.14208 21.8598 8.7964 20.8928 9.49973C20.8438 9.5354 20.7848 9.4704 20.8245 9.42473ZM26.4018 21.962L26.4021 21.9627L26.4028 21.964L26.4018 21.962ZM31.0198 22.507C31.0531 22.493 31.0758 22.4553 31.0721 22.4177C31.0675 22.3713 31.0261 22.3377 30.9798 22.3423C30.9798 22.3423 28.5901 22.696 26.3325 21.8697C26.5785 21.0703 27.2321 21.359 28.2205 21.4387C30.0018 21.545 31.5985 21.2847 32.7784 20.946C33.8008 20.6527 35.1438 20.074 36.1868 19.2507C36.5384 20.0233 36.6628 20.874 36.6628 20.874C36.6628 20.874 36.9351 20.8253 37.1628 20.9653C37.3778 21.0977 37.5354 21.3727 37.4278 22.084C37.2084 23.4127 36.6438 24.4913 35.6944 25.4836C35.1164 26.1056 34.4151 26.6463 33.6124 27.0396C33.1861 27.2636 32.7324 27.4573 32.2528 27.6136C28.6741 28.7826 25.0108 27.4976 23.8302 24.7383C23.7358 24.531 23.6562 24.3137 23.5935 24.0867C23.0905 22.2683 23.5175 20.0867 24.8528 18.7134C24.9352 18.626 25.0192 18.5224 25.0192 18.3927C25.0192 18.2844 24.9502 18.17 24.8905 18.0887C24.4232 17.411 22.8048 16.2564 23.1298 14.0217C23.3632 12.4164 24.7672 11.2857 26.0761 11.3527L26.4078 11.3717C26.9751 11.4054 27.4698 11.4781 27.9368 11.4977C28.7185 11.5317 29.4211 11.4181 30.2538 10.7244C30.5345 10.4904 30.7598 10.2874 31.1408 10.2231C31.1808 10.2161 31.2805 10.1804 31.4795 10.1897C31.6828 10.2007 31.8761 10.2564 32.0498 10.3721C32.7171 10.8161 32.8118 11.8917 32.8464 12.6784C32.8661 13.1274 32.9204 14.214 32.9391 14.526C32.9814 15.2394 33.1691 15.3397 33.5484 15.4647C33.7618 15.535 33.9598 15.5874 34.2518 15.6694C35.1351 15.9174 35.6588 16.169 35.9891 16.4924C36.1861 16.6944 36.2778 16.909 36.3061 17.1137C36.4101 17.8737 35.7161 18.8123 33.8784 19.6653C31.8698 20.5977 29.4328 20.8337 27.7491 20.646L27.1591 20.5793C25.8125 20.398 25.0442 22.1383 25.8525 23.331C26.3735 24.0997 27.7925 24.5997 29.2121 24.6C32.4671 24.6003 34.9691 23.2103 35.8998 22.01L35.9741 21.904C36.0201 21.835 35.9821 21.797 35.9251 21.836C35.1648 22.3563 31.7875 24.422 28.1748 23.8003C28.1748 23.8003 27.7358 23.728 27.3351 23.5723C27.0168 23.4483 26.3501 23.1417 26.2691 22.458C29.1845 23.3597 31.0198 22.507 31.0198 22.507ZM15.0069 15.5787C13.9929 15.7757 13.0992 16.3504 12.5529 17.1444C12.2262 16.872 11.6179 16.3447 11.5102 16.139C10.6379 14.4824 12.4622 11.2617 13.7369 9.44273C16.8869 4.94775 21.8202 1.54544 24.1038 2.16277C24.4752 2.26777 25.7048 3.69343 25.7048 3.69343C25.7048 3.69343 23.4218 4.96009 21.3048 6.72575C18.4522 8.92207 16.2979 12.1144 15.0069 15.5787ZM16.7105 23.1803C16.5572 23.2067 16.4005 23.217 16.2425 23.213C14.7169 23.172 13.0692 21.7987 12.9056 20.17C12.7246 18.3697 13.6446 16.9844 15.2732 16.6557C15.4679 16.6164 15.7032 16.5937 15.9569 16.607C16.8695 16.657 18.2142 17.3577 18.5212 19.3457C18.7932 21.1063 18.3612 22.899 16.7105 23.1803ZM37.3758 19.9923C37.3628 19.946 37.2774 19.635 37.1604 19.26C37.0434 18.8847 36.9224 18.621 36.9224 18.621C37.3918 17.9187 37.4001 17.2904 37.3374 16.9347C37.2708 16.4937 37.0871 16.118 36.7171 15.7294C36.3471 15.341 35.5901 14.943 34.5264 14.6444L33.9684 14.4894C33.9658 14.4664 33.9391 13.1737 33.9151 12.6187C33.8974 12.2174 33.8631 11.5911 33.6688 10.9744C33.4371 10.1394 33.0338 9.40873 32.5301 8.9414C33.9201 7.50074 34.7878 5.91342 34.7854 4.55209C34.7814 1.93377 31.5658 1.14145 27.6028 2.78244L26.7631 3.13877C26.7595 3.1351 25.2452 1.64944 25.2225 1.62944C20.7042 -2.31154 6.57759 13.3907 11.0939 17.2044L12.0809 18.0407C11.8249 18.704 11.7242 19.464 11.8066 20.281C11.9119 21.3307 12.4532 22.3367 13.3309 23.114C14.1639 23.852 15.2592 24.3193 16.3219 24.3183C18.0795 28.3686 22.0955 30.8533 26.8041 30.9933C31.8551 31.1433 36.0951 28.7733 37.8718 24.516C37.9881 24.2173 38.4811 22.871 38.4811 21.6823C38.4811 20.488 37.8058 19.9923 37.3758 19.9923Z" fill="white" style="mix-blend-mode:saturation"/>
<path fill-rule="evenodd" clip-rule="evenodd" d="M20.8245 9.42473C21.9445 8.13074 23.3228 7.00575 24.5578 6.37408C24.6005 6.35208 24.6458 6.39842 24.6228 6.44042C24.5248 6.61808 24.3358 6.99841 24.2762 7.28674C24.2668 7.33174 24.3158 7.36541 24.3538 7.33975C25.1222 6.81608 26.4585 6.25475 27.6308 6.18275C27.6811 6.17975 27.7055 6.24408 27.6655 6.27508C27.4871 6.41175 27.2921 6.60108 27.1498 6.79242C27.1255 6.82508 27.1485 6.87175 27.1891 6.87208C28.0121 6.87808 29.1725 7.16608 29.9288 7.59041C29.9798 7.61908 29.9435 7.71807 29.8861 7.70507C28.7418 7.44274 26.8688 7.24375 24.9228 7.71841C23.1858 8.14208 21.8598 8.7964 20.8928 9.49973C20.8438 9.5354 20.7848 9.4704 20.8245 9.42473ZM26.4018 21.962L26.4021 21.9627L26.4028 21.964L26.4018 21.962ZM31.0198 22.507C31.0531 22.493 31.0758 22.4553 31.0721 22.4177C31.0675 22.3713 31.0261 22.3377 30.9798 22.3423C30.9798 22.3423 28.5901 22.696 26.3325 21.8697C26.5785 21.0703 27.2321 21.359 28.2205 21.4387C30.0018 21.545 31.5985 21.2847 32.7784 20.946C33.8008 20.6527 35.1438 20.074 36.1868 19.2507C36.5384 20.0233 36.6628 20.874 36.6628 20.874C36.6628 20.874 36.9351 20.8253 37.1628 20.9653C37.3778 21.0977 37.5354 21.3727 37.4278 22.084C37.2084 23.4127 36.6438 24.4913 35.6944 25.4836C35.1164 26.1056 34.4151 26.6463 33.6124 27.0396C33.1861 27.2636 32.7324 27.4573 32.2528 27.6136C28.6741 28.7826 25.0108 27.4976 23.8302 24.7383C23.7358 24.531 23.6562 24.3137 23.5935 24.0867C23.0905 22.2683 23.5175 20.0867 24.8528 18.7134C24.9352 18.626 25.0192 18.5224 25.0192 18.3927C25.0192 18.2844 24.9502 18.17 24.8905 18.0887C24.4232 17.411 22.8048 16.2564 23.1298 14.0217C23.3632 12.4164 24.7672 11.2857 26.0761 11.3527L26.4078 11.3717C26.9751 11.4054 27.4698 11.4781 27.9368 11.4977C28.7185 11.5317 29.4211 11.4181 30.2538 10.7244C30.5345 10.4904 30.7598 10.2874 31.1408 10.2231C31.1808 10.2161 31.2805 10.1804 31.4795 10.1897C31.6828 10.2007 31.8761 10.2564 32.0498 10.3721C32.7171 10.8161 32.8118 11.8917 32.8464 12.6784C32.8661 13.1274 32.9204 14.214 32.9391 14.526C32.9814 15.2394 33.1691 15.3397 33.5484 15.4647C33.7618 15.535 33.9598 15.5874 34.2518 15.6694C35.1351 15.9174 35.6588 16.169 35.9891 16.4924C36.1861 16.6944 36.2778 16.909 36.3061 17.1137C36.4101 17.8737 35.7161 18.8123 33.8784 19.6653C31.8698 20.5977 29.4328 20.8337 27.7491 20.646L27.1591 20.5793C25.8125 20.398 25.0442 22.1383 25.8525 23.331C26.3735 24.0997 27.7925 24.5997 29.2121 24.6C32.4671 24.6003 34.9691 23.2103 35.8998 22.01L35.9741 21.904C36.0201 21.835 35.9821 21.797 35.9251 21.836C35.1648 22.3563 31.7875 24.422 28.1748 23.8003C28.1748 23.8003 27.7358 23.728 27.3351 23.5723C27.0168 23.4483 26.3501 23.1417 26.2691 22.458C29.1845 23.3597 31.0198 22.507 31.0198 22.507ZM15.0069 15.5787C13.9929 15.7757 13.0992 16.3504 12.5529 17.1444C12.2262 16.872 11.6179 16.3447 11.5102 16.139C10.6379 14.4824 12.4622 11.2617 13.7369 9.44273C16.8869 4.94775 21.8202 1.54544 24.1038 2.16277C24.4752 2.26777 25.7048 3.69343 25.7048 3.69343C25.7048 3.69343 23.4218 4.96009 21.3048 6.72575C18.4522 8.92207 16.2979 12.1144 15.0069 15.5787ZM16.7105 23.1803C16.5572 23.2067 16.4005 23.217 16.2425 23.213C14.7169 23.172 13.0692 21.7987 12.9056 20.17C12.7246 18.3697 13.6446 16.9844 15.2732 16.6557C15.4679 16.6164 15.7032 16.5937 15.9569 16.607C16.8695 16.657 18.2142 17.3577 18.5212 19.3457C18.7932 21.1063 18.3612 22.899 16.7105 23.1803ZM37.3758 19.9923C37.3628 19.946 37.2774 19.635 37.1604 19.26C37.0434 18.8847 36.9224 18.621 36.9224 18.621C37.3918 17.9187 37.4001 17.2904 37.3374 16.9347C37.2708 16.4937 37.0871 16.118 36.7171 15.7294C36.3471 15.341 35.5901 14.943 34.5264 14.6444L33.9684 14.4894C33.9658 14.4664 33.9391 13.1737 33.9151 12.6187C33.8974 12.2174 33.8631 11.5911 33.6688 10.9744C33.4371 10.1394 33.0338 9.40873 32.5301 8.9414C33.9201 7.50074 34.7878 5.91342 34.7854 4.55209C34.7814 1.93377 31.5658 1.14145 27.6028 2.78244L26.7631 3.13877C26.7595 3.1351 25.2452 1.64944 25.2225 1.62944C20.7042 -2.31154 6.57759 13.3907 11.0939 17.2044L12.0809 18.0407C11.8249 18.704 11.7242 19.464 11.8066 20.281C11.9119 21.3307 12.4532 22.3367 13.3309 23.114C14.1639 23.852 15.2592 24.3193 16.3219 24.3183C18.0795 28.3686 22.0955 30.8533 26.8041 30.9933C31.8551 31.1433 36.0951 28.7733 37.8718 24.516C37.9881 24.2173 38.4811 22.871 38.4811 21.6823C38.4811 20.488 37.8058 19.9923 37.3758 19.9923Z" fill="black" style="mix-blend-mode:overlay"/>
<path fill-rule="evenodd" clip-rule="evenodd" d="M20.8245 9.42473C21.9445 8.13074 23.3228 7.00575 24.5578 6.37408C24.6005 6.35208 24.6458 6.39842 24.6228 6.44042C24.5248 6.61808 24.3358 6.99841 24.2762 7.28674C24.2668 7.33174 24.3158 7.36541 24.3538 7.33975C25.1222 6.81608 26.4585 6.25475 27.6308 6.18275C27.6811 6.17975 27.7055 6.24408 27.6655 6.27508C27.4871 6.41175 27.2921 6.60108 27.1498 6.79242C27.1255 6.82508 27.1485 6.87175 27.1891 6.87208C28.0121 6.87808 29.1725 7.16608 29.9288 7.59041C29.9798 7.61908 29.9435 7.71807 29.8861 7.70507C28.7418 7.44274 26.8688 7.24375 24.9228 7.71841C23.1858 8.14208 21.8598 8.7964 20.8928 9.49973C20.8438 9.5354 20.7848 9.4704 20.8245 9.42473ZM26.4018 21.962L26.4021 21.9627L26.4028 21.964L26.4018 21.962ZM31.0198 22.507C31.0531 22.493 31.0758 22.4553 31.0721 22.4177C31.0675 22.3713 31.0261 22.3377 30.9798 22.3423C30.9798 22.3423 28.5901 22.696 26.3325 21.8697C26.5785 21.0703 27.2321 21.359 28.2205 21.4387C30.0018 21.545 31.5985 21.2847 32.7784 20.946C33.8008 20.6527 35.1438 20.074 36.1868 19.2507C36.5384 20.0233 36.6628 20.874 36.6628 20.874C36.6628 20.874 36.9351 20.8253 37.1628 20.9653C37.3778 21.0977 37.5354 21.3727 37.4278 22.084C37.2084 23.4127 36.6438 24.4913 35.6944 25.4836C35.1164 26.1056 34.4151 26.6463 33.6124 27.0396C33.1861 27.2636 32.7324 27.4573 32.2528 27.6136C28.6741 28.7826 25.0108 27.4976 23.8302 24.7383C23.7358 24.531 23.6562 24.3137 23.5935 24.0867C23.0905 22.2683 23.5175 20.0867 24.8528 18.7134C24.9352 18.626 25.0192 18.5224 25.0192 18.3927C25.0192 18.2844 24.9502 18.17 24.8905 18.0887C24.4232 17.411 22.8048 16.2564 23.1298 14.0217C23.3632 12.4164 24.7672 11.2857 26.0761 11.3527L26.4078 11.3717C26.9751 11.4054 27.4698 11.4781 27.9368 11.4977C28.7185 11.5317 29.4211 11.4181 30.2538 10.7244C30.5345 10.4904 30.7598 10.2874 31.1408 10.2231C31.1808 10.2161 31.2805 10.1804 31.4795 10.1897C31.6828 10.2007 31.8761 10.2564 32.0498 10.3721C32.7171 10.8161 32.8118 11.8917 32.8464 12.6784C32.8661 13.1274 32.9204 14.214 32.9391 14.526C32.9814 15.2394 33.1691 15.3397 33.5484 15.4647C33.7618 15.535 33.9598 15.5874 34.2518 15.6694C35.1351 15.9174 35.6588 16.169 35.9891 16.4924C36.1861 16.6944 36.2778 16.909 36.3061 17.1137C36.4101 17.8737 35.7161 18.8123 33.8784 19.6653C31.8698 20.5977 29.4328 20.8337 27.7491 20.646L27.1591 20.5793C25.8125 20.398 25.0442 22.1383 25.8525 23.331C26.3735 24.0997 27.7925 24.5997 29.2121 24.6C32.4671 24.6003 34.9691 23.2103 35.8998 22.01L35.9741 21.904C36.0201 21.835 35.9821 21.797 35.9251 21.836C35.1648 22.3563 31.7875 24.422 28.1748 23.8003C28.1748 23.8003 27.7358 23.728 27.3351 23.5723C27.0168 23.4483 26.3501 23.1417 26.2691 22.458C29.1845 23.3597 31.0198 22.507 31.0198 22.507ZM15.0069 15.5787C13.9929 15.7757 13.0992 16.3504 12.5529 17.1444C12.2262 16.872 11.6179 16.3447 11.5102 16.139C10.6379 14.4824 12.4622 11.2617 13.7369 9.44273C16.8869 4.94775 21.8202 1.54544 24.1038 2.16277C24.4752 2.26777 25.7048 3.69343 25.7048 3.69343C25.7048 3.69343 23.4218 4.96009 21.3048 6.72575C18.4522 8.92207 16.2979 12.1144 15.0069 15.5787ZM16.7105 23.1803C16.5572 23.2067 16.4005 23.217 16.2425 23.213C14.7169 23.172 13.0692 21.7987 12.9056 20.17C12.7246 18.3697 13.6446 16.9844 15.2732 16.6557C15.4679 16.6164 15.7032 16.5937 15.9569 16.607C16.8695 16.657 18.2142 17.3577 18.5212 19.3457C18.7932 21.1063 18.3612 22.899 16.7105 23.1803ZM37.3758 19.9923C37.3628 19.946 37.2774 19.635 37.1604 19.26C37.0434 18.8847 36.9224 18.621 36.9224 18.621C37.3918 17.9187 37.4001 17.2904 37.3374 16.9347C37.2708 16.4937 37.0871 16.118 36.7171 15.7294C36.3471 15.341 35.5901 14.943 34.5264 14.6444L33.9684 14.4894C33.9658 14.4664 33.9391 13.1737 33.9151 12.6187C33.8974 12.2174 33.8631 11.5911 33.6688 10.9744C33.4371 10.1394 33.0338 9.40873 32.5301 8.9414C33.9201 7.50074 34.7878 5.91342 34.7854 4.55209C34.7814 1.93377 31.5658 1.14145 27.6028 2.78244L26.7631 3.13877C26.7595 3.1351 25.2452 1.64944 25.2225 1.62944C20.7042 -2.31154 6.57759 13.3907 11.0939 17.2044L12.0809 18.0407C11.8249 18.704 11.7242 19.464 11.8066 20.281C11.9119 21.3307 12.4532 22.3367 13.3309 23.114C14.1639 23.852 15.2592 24.3193 16.3219 24.3183C18.0795 28.3686 22.0955 30.8533 26.8041 30.9933C31.8551 31.1433 36.0951 28.7733 37.8718 24.516C37.9881 24.2173 38.4811 22.871 38.4811 21.6823C38.4811 20.488 37.8058 19.9923 37.3758 19.9923Z" fill="black" style="mix-blend-mode:overlay"/>
<path fill-rule="evenodd" clip-rule="evenodd" d="M20.8245 9.42473C21.9445 8.13074 23.3228 7.00575 24.5578 6.37408C24.6005 6.35208 24.6458 6.39842 24.6228 6.44042C24.5248 6.61808 24.3358 6.99841 24.2762 7.28674C24.2668 7.33174 24.3158 7.36541 24.3538 7.33975C25.1222 6.81608 26.4585 6.25475 27.6308 6.18275C27.6811 6.17975 27.7055 6.24408 27.6655 6.27508C27.4871 6.41175 27.2921 6.60108 27.1498 6.79242C27.1255 6.82508 27.1485 6.87175 27.1891 6.87208C28.0121 6.87808 29.1725 7.16608 29.9288 7.59041C29.9798 7.61908 29.9435 7.71807 29.8861 7.70507C28.7418 7.44274 26.8688 7.24375 24.9228 7.71841C23.1858 8.14208 21.8598 8.7964 20.8928 9.49973C20.8438 9.5354 20.7848 9.4704 20.8245 9.42473ZM26.4018 21.962L26.4021 21.9627L26.4028 21.964L26.4018 21.962ZM31.0198 22.507C31.0531 22.493 31.0758 22.4553 31.0721 22.4177C31.0675 22.3713 31.0261 22.3377 30.9798 22.3423C30.9798 22.3423 28.5901 22.696 26.3325 21.8697C26.5785 21.0703 27.2321 21.359 28.2205 21.4387C30.0018 21.545 31.5985 21.2847 32.7784 20.946C33.8008 20.6527 35.1438 20.074 36.1868 19.2507C36.5384 20.0233 36.6628 20.874 36.6628 20.874C36.6628 20.874 36.9351 20.8253 37.1628 20.9653C37.3778 21.0977 37.5354 21.3727 37.4278 22.084C37.2084 23.4127 36.6438 24.4913 35.6944 25.4836C35.1164 26.1056 34.4151 26.6463 33.6124 27.0396C33.1861 27.2636 32.7324 27.4573 32.2528 27.6136C28.6741 28.7826 25.0108 27.4976 23.8302 24.7383C23.7358 24.531 23.6562 24.3137 23.5935 24.0867C23.0905 22.2683 23.5175 20.0867 24.8528 18.7134C24.9352 18.626 25.0192 18.5224 25.0192 18.3927C25.0192 18.2844 24.9502 18.17 24.8905 18.0887C24.4232 17.411 22.8048 16.2564 23.1298 14.0217C23.3632 12.4164 24.7672 11.2857 26.0761 11.3527L26.4078 11.3717C26.9751 11.4054 27.4698 11.4781 27.9368 11.4977C28.7185 11.5317 29.4211 11.4181 30.2538 10.7244C30.5345 10.4904 30.7598 10.2874 31.1408 10.2231C31.1808 10.2161 31.2805 10.1804 31.4795 10.1897C31.6828 10.2007 31.8761 10.2564 32.0498 10.3721C32.7171 10.8161 32.8118 11.8917 32.8464 12.6784C32.8661 13.1274 32.9204 14.214 32.9391 14.526C32.9814 15.2394 33.1691 15.3397 33.5484 15.4647C33.7618 15.535 33.9598 15.5874 34.2518 15.6694C35.1351 15.9174 35.6588 16.169 35.9891 16.4924C36.1861 16.6944 36.2778 16.909 36.3061 17.1137C36.4101 17.8737 35.7161 18.8123 33.8784 19.6653C31.8698 20.5977 29.4328 20.8337 27.7491 20.646L27.1591 20.5793C25.8125 20.398 25.0442 22.1383 25.8525 23.331C26.3735 24.0997 27.7925 24.5997 29.2121 24.6C32.4671 24.6003 34.9691 23.2103 35.8998 22.01L35.9741 21.904C36.0201 21.835 35.9821 21.797 35.9251 21.836C35.1648 22.3563 31.7875 24.422 28.1748 23.8003C28.1748 23.8003 27.7358 23.728 27.3351 23.5723C27.0168 23.4483 26.3501 23.1417 26.2691 22.458C29.1845 23.3597 31.0198 22.507 31.0198 22.507ZM15.0069 15.5787C13.9929 15.7757 13.0992 16.3504 12.5529 17.1444C12.2262 16.872 11.6179 16.3447 11.5102 16.139C10.6379 14.4824 12.4622 11.2617 13.7369 9.44273C16.8869 4.94775 21.8202 1.54544 24.1038 2.16277C24.4752 2.26777 25.7048 3.69343 25.7048 3.69343C25.7048 3.69343 23.4218 4.96009 21.3048 6.72575C18.4522 8.92207 16.2979 12.1144 15.0069 15.5787ZM16.7105 23.1803C16.5572 23.2067 16.4005 23.217 16.2425 23.213C14.7169 23.172 13.0692 21.7987 12.9056 20.17C12.7246 18.3697 13.6446 16.9844 15.2732 16.6557C15.4679 16.6164 15.7032 16.5937 15.9569 16.607C16.8695 16.657 18.2142 17.3577 18.5212 19.3457C18.7932 21.1063 18.3612 22.899 16.7105 23.1803ZM37.3758 19.9923C37.3628 19.946 37.2774 19.635 37.1604 19.26C37.0434 18.8847 36.9224 18.621 36.9224 18.621C37.3918 17.9187 37.4001 17.2904 37.3374 16.9347C37.2708 16.4937 37.0871 16.118 36.7171 15.7294C36.3471 15.341 35.5901 14.943 34.5264 14.6444L33.9684 14.4894C33.9658 14.4664 33.9391 13.1737 33.9151 12.6187C33.8974 12.2174 33.8631 11.5911 33.6688 10.9744C33.4371 10.1394 33.0338 9.40873 32.5301 8.9414C33.9201 7.50074 34.7878 5.91342 34.7854 4.55209C34.7814 1.93377 31.5658 1.14145 27.6028 2.78244L26.7631 3.13877C26.7595 3.1351 25.2452 1.64944 25.2225 1.62944C20.7042 -2.31154 6.57759 13.3907 11.0939 17.2044L12.0809 18.0407C11.8249 18.704 11.7242 19.464 11.8066 20.281C11.9119 21.3307 12.4532 22.3367 13.3309 23.114C14.1639 23.852 15.2592 24.3193 16.3219 24.3183C18.0795 28.3686 22.0955 30.8533 26.8041 30.9933C31.8551 31.1433 36.0951 28.7733 37.8718 24.516C37.9881 24.2173 38.4811 22.871 38.4811 21.6823C38.4811 20.488 37.8058 19.9923 37.3758 19.9923Z" fill="black" style="mix-blend-mode:overlay"/>
<path fill-rule="evenodd" clip-rule="evenodd" d="M20.8245 9.42473C21.9445 8.13074 23.3228 7.00575 24.5578 6.37408C24.6005 6.35208 24.6458 6.39842 24.6228 6.44042C24.5248 6.61808 24.3358 6.99841 24.2762 7.28674C24.2668 7.33174 24.3158 7.36541 24.3538 7.33975C25.1222 6.81608 26.4585 6.25475 27.6308 6.18275C27.6811 6.17975 27.7055 6.24408 27.6655 6.27508C27.4871 6.41175 27.2921 6.60108 27.1498 6.79242C27.1255 6.82508 27.1485 6.87175 27.1891 6.87208C28.0121 6.87808 29.1725 7.16608 29.9288 7.59041C29.9798 7.61908 29.9435 7.71807 29.8861 7.70507C28.7418 7.44274 26.8688 7.24375 24.9228 7.71841C23.1858 8.14208 21.8598 8.7964 20.8928 9.49973C20.8438 9.5354 20.7848 9.4704 20.8245 9.42473ZM26.4018 21.962L26.4021 21.9627L26.4028 21.964L26.4018 21.962ZM31.0198 22.507C31.0531 22.493 31.0758 22.4553 31.0721 22.4177C31.0675 22.3713 31.0261 22.3377 30.9798 22.3423C30.9798 22.3423 28.5901 22.696 26.3325 21.8697C26.5785 21.0703 27.2321 21.359 28.2205 21.4387C30.0018 21.545 31.5985 21.2847 32.7784 20.946C33.8008 20.6527 35.1438 20.074 36.1868 19.2507C36.5384 20.0233 36.6628 20.874 36.6628 20.874C36.6628 20.874 36.9351 20.8253 37.1628 20.9653C37.3778 21.0977 37.5354 21.3727 37.4278 22.084C37.2084 23.4127 36.6438 24.4913 35.6944 25.4836C35.1164 26.1056 34.4151 26.6463 33.6124 27.0396C33.1861 27.2636 32.7324 27.4573 32.2528 27.6136C28.6741 28.7826 25.0108 27.4976 23.8302 24.7383C23.7358 24.531 23.6562 24.3137 23.5935 24.0867C23.0905 22.2683 23.5175 20.0867 24.8528 18.7134C24.9352 18.626 25.0192 18.5224 25.0192 18.3927C25.0192 18.2844 24.9502 18.17 24.8905 18.0887C24.4232 17.411 22.8048 16.2564 23.1298 14.0217C23.3632 12.4164 24.7672 11.2857 26.0761 11.3527L26.4078 11.3717C26.9751 11.4054 27.4698 11.4781 27.9368 11.4977C28.7185 11.5317 29.4211 11.4181 30.2538 10.7244C30.5345 10.4904 30.7598 10.2874 31.1408 10.2231C31.1808 10.2161 31.2805 10.1804 31.4795 10.1897C31.6828 10.2007 31.8761 10.2564 32.0498 10.3721C32.7171 10.8161 32.8118 11.8917 32.8464 12.6784C32.8661 13.1274 32.9204 14.214 32.9391 14.526C32.9814 15.2394 33.1691 15.3397 33.5484 15.4647C33.7618 15.535 33.9598 15.5874 34.2518 15.6694C35.1351 15.9174 35.6588 16.169 35.9891 16.4924C36.1861 16.6944 36.2778 16.909 36.3061 17.1137C36.4101 17.8737 35.7161 18.8123 33.8784 19.6653C31.8698 20.5977 29.4328 20.8337 27.7491 20.646L27.1591 20.5793C25.8125 20.398 25.0442 22.1383 25.8525 23.331C26.3735 24.0997 27.7925 24.5997 29.2121 24.6C32.4671 24.6003 34.9691 23.2103 35.8998 22.01L35.9741 21.904C36.0201 21.835 35.9821 21.797 35.9251 21.836C35.1648 22.3563 31.7875 24.422 28.1748 23.8003C28.1748 23.8003 27.7358 23.728 27.3351 23.5723C27.0168 23.4483 26.3501 23.1417 26.2691 22.458C29.1845 23.3597 31.0198 22.507 31.0198 22.507ZM15.0069 15.5787C13.9929 15.7757 13.0992 16.3504 12.5529 17.1444C12.2262 16.872 11.6179 16.3447 11.5102 16.139C10.6379 14.4824 12.4622 11.2617 13.7369 9.44273C16.8869 4.94775 21.8202 1.54544 24.1038 2.16277C24.4752 2.26777 25.7048 3.69343 25.7048 3.69343C25.7048 3.69343 23.4218 4.96009 21.3048 6.72575C18.4522 8.92207 16.2979 12.1144 15.0069 15.5787ZM16.7105 23.1803C16.5572 23.2067 16.4005 23.217 16.2425 23.213C14.7169 23.172 13.0692 21.7987 12.9056 20.17C12.7246 18.3697 13.6446 16.9844 15.2732 16.6557C15.4679 16.6164 15.7032 16.5937 15.9569 16.607C16.8695 16.657 18.2142 17.3577 18.5212 19.3457C18.7932 21.1063 18.3612 22.899 16.7105 23.1803ZM37.3758 19.9923C37.3628 19.946 37.2774 19.635 37.1604 19.26C37.0434 18.8847 36.9224 18.621 36.9224 18.621C37.3918 17.9187 37.4001 17.2904 37.3374 16.9347C37.2708 16.4937 37.0871 16.118 36.7171 15.7294C36.3471 15.341 35.5901 14.943 34.5264 14.6444L33.9684 14.4894C33.9658 14.4664 33.9391 13.1737 33.9151 12.6187C33.8974 12.2174 33.8631 11.5911 33.6688 10.9744C33.4371 10.1394 33.0338 9.40873 32.5301 8.9414C33.9201 7.50074 34.7878 5.91342 34.7854 4.55209C34.7814 1.93377 31.5658 1.14145 27.6028 2.78244L26.7631 3.13877C26.7595 3.1351 25.2452 1.64944 25.2225 1.62944C20.7042 -2.31154 6.57759 13.3907 11.0939 17.2044L12.0809 18.0407C11.8249 18.704 11.7242 19.464 11.8066 20.281C11.9119 21.3307 12.4532 22.3367 13.3309 23.114C14.1639 23.852 15.2592 24.3193 16.3219 24.3183C18.0795 28.3686 22.0955 30.8533 26.8041 30.9933C31.8551 31.1433 36.0951 28.7733 37.8718 24.516C37.9881 24.2173 38.4811 22.871 38.4811 21.6823C38.4811 20.488 37.8058 19.9923 37.3758 19.9923Z" fill="black" style="mix-blend-mode:overlay"/>
</svg>
