<svg width="12" height="12" viewBox="0 0 12 12" fill="none" xmlns="http://www.w3.org/2000/svg">
<path d="M2.88735 9.80938C2.89768 9.79199 2.90826 9.77467 2.91909 9.75745C3.70921 8.50141 4.16661 7.01603 4.16661 5.41667C4.16661 4.128 5.21128 3.08333 6.49995 3.08333C7.78861 3.08333 8.83328 4.128 8.83328 5.41667C8.83328 6.00994 8.79289 6.59417 8.7147 7.16667M7.47954 11.1588C7.83637 10.4465 8.12891 9.69651 8.34958 8.91667M10.589 9.57697C10.9652 8.25498 11.1667 6.85935 11.1667 5.41667C11.1667 2.83934 9.07733 0.75 6.5 0.75C5.65 0.75 4.85307 0.977253 4.16667 1.37432M1.25 7.96241C1.62372 7.19313 1.83333 6.32938 1.83333 5.41667C1.83333 4.56666 2.06059 3.76974 2.45765 3.08333M6.49992 5.41667C6.49992 7.46837 5.91147 9.38263 4.89412 10.9999" stroke="#2458D7" stroke-linecap="round" stroke-linejoin="round"/>
</svg>
